<svg width="91" height="35" viewBox="0 0 91 35" fill="none" xmlns="http://www.w3.org/2000/svg">
<g clip-path="url(#clip0_82_822)">
<path d="M8.14622 11.4487C8.59464 11.4487 8.91849 11.5869 8.91849 12.1217V24.9333H12.0574V13.3716C12.0574 11.9234 11.8457 10.373 9.32954 10.373H2.72786C0.21798 10.373 0 11.9234 0 13.3716V24.9333H3.14514V12.1217C3.14514 11.5869 3.46277 11.4487 3.91741 11.4487H8.14622Z" fill="white"/>
<path d="M27.4141 24.9349L30.9453 12.526C31.3937 11.0417 32.0664 9.99609 33.8413 9.99609C35.9402 9.99609 36.2889 11.4503 36.8432 13.199L40.443 24.9349H37.1235L35.7969 20.5182H30.1357L28.8776 24.9349H27.4141ZM35.3796 19.106L33.6607 13.4394C33.4178 12.5981 33.449 12.0572 32.9632 12.0572C32.4712 12.0572 32.4027 12.6341 32.1909 13.4754L30.5467 19.106H35.3796Z" fill="white"/>
<path d="M23.0376 24.9328L19.5748 13.4373C19.3319 12.596 19.3693 12.0551 18.8835 12.0551C18.3915 12.0551 18.323 12.632 18.1112 13.4733L14.7917 24.9389H13.3281L16.8532 12.5299C17.3016 11.0456 17.9742 10 19.7492 10C21.848 10 22.1968 11.4542 22.7511 13.2029L26.3571 24.9389H23.0376V24.9328Z" fill="white"/>
<path d="M41.7188 24.9352V10.375H44.839V16.7147H50.5812V10.375H53.7762V24.9352H50.5812V18.1268H44.839V24.9352H41.7188Z" fill="white"/>
<path d="M65.3822 11.4506H59.4096C58.9487 11.4506 58.6373 11.5889 58.6373 12.1237V16.7087H64.1927V18.1268H58.6373V22.844C58.6373 23.5171 59.0546 23.8536 59.8269 23.8536H65.8057V24.9352H57.9024C56.4015 24.9352 55.4922 24.2622 55.4922 22.3753V13.3736C55.4922 11.9254 55.7039 10.375 58.22 10.375H65.3822V11.4506Z" fill="white"/>
<path d="M71.3812 24.9352V11.4506H66.9531V10.375H79.0105V11.4506H74.5824V24.9352H71.3812Z" fill="white"/>
<path d="M77.5312 24.9349L81.0625 12.526C81.5172 11.0417 82.1836 9.99609 83.9648 9.99609C86.0636 9.99609 86.4124 11.4503 86.9667 13.199L90.5665 24.9349H87.247L85.9204 20.5182H80.2591L79.0011 24.9349H77.5312ZM85.4969 19.106L83.7842 13.4394C83.5413 12.5981 83.5787 12.0572 83.0866 12.0572C82.5946 12.0572 82.5261 12.6341 82.3206 13.4754L80.6764 19.106H85.4969Z" fill="white"/>
</g>
<defs>
<clipPath id="clip0_82_822">
<rect width="91" height="15" fill="white" transform="translate(0 10)"/>
</clipPath>
</defs>
</svg>
