<svg width="160" height="61" viewBox="0 0 160 61" fill="none" xmlns="http://www.w3.org/2000/svg">
<g clip-path="url(#clip0_27_70)">
<path d="M14.3576 19.5604C15.1479 19.5604 15.7187 19.8013 15.7187 20.7334V43.0622H21.251V22.9119C21.251 20.3878 20.8778 17.6858 16.4432 17.6858H4.80782C0.384186 17.6858 0 20.3878 0 22.9119V43.0622H5.54326V20.7334C5.54326 19.8013 6.10308 19.5604 6.90438 19.5604H14.3576Z" fill="#313131"/>
<path d="M48.3184 43.0598L54.5422 21.4327C55.3325 18.8459 56.518 17.0235 59.6463 17.0235C63.3455 17.0235 63.9602 19.558 64.9371 22.6057L71.2816 43.0598H65.4311L63.093 35.362H53.1152L50.8979 43.0598H48.3184ZM62.3576 32.9008L59.328 23.0246C58.8999 21.5584 58.9548 20.6158 58.0986 20.6158C57.2314 20.6158 57.1107 21.6212 56.7375 23.0875L53.8396 32.9008H62.3576Z" fill="#313131"/>
<path d="M40.6089 43.0572L34.5058 23.022C34.0777 21.5557 34.1435 20.6132 33.2874 20.6132C32.4202 20.6132 32.2995 21.6186 31.9262 23.0848L26.0756 43.0676H23.4961L29.7089 21.4405C30.4993 18.8537 31.6848 17.0313 34.8131 17.0313C38.5123 17.0313 39.127 19.5658 40.1039 22.6135L46.4595 43.0676H40.6089V43.0572Z" fill="#313131"/>
<path d="M73.5293 43.0601V17.6837H79.0287V28.7328H89.1492V17.6837H94.7803V43.0601H89.1492V31.194H79.0287V43.0601H73.5293Z" fill="#313131"/>
<path d="M115.247 19.5584H104.721C103.908 19.5584 103.36 19.7993 103.36 20.7314V28.7224H113.151V31.194H103.36V39.4154C103.36 40.5884 104.095 41.1749 105.456 41.1749H115.994V43.0601H102.064C99.419 43.0601 97.8164 41.8871 97.8164 38.5985V22.9098C97.8164 20.3858 98.1896 17.6837 102.624 17.6837H115.247V19.5584Z" fill="#313131"/>
<path d="M125.82 43.0601V19.5584H118.016V17.6837H139.267V19.5584H131.462V43.0601H125.82Z" fill="#313131"/>
<path d="M136.648 43.0598L142.872 21.4327C143.674 18.8459 144.848 17.0235 147.987 17.0235C151.687 17.0235 152.301 19.558 153.278 22.6057L159.623 43.0598H153.772L151.434 35.362H141.456L139.239 43.0598H136.648ZM150.688 32.9008L147.669 23.0246C147.241 21.5584 147.307 20.6158 146.44 20.6158C145.573 20.6158 145.452 21.6212 145.09 23.0875L142.192 32.9008H150.688Z" fill="#313131"/>
</g>
<defs>
<clipPath id="clip0_27_70">
<rect width="160" height="61" fill="white"/>
</clipPath>
</defs>
</svg>
