<svg width="100" height="124" viewBox="0 0 100 124" fill="none" xmlns="http://www.w3.org/2000/svg">
<mask id="mask0_70_52" style="mask-type:luminance" maskUnits="userSpaceOnUse" x="0" y="12" width="100" height="100">
<path d="M100 12H0V112H100V12Z" fill="white"/>
</mask>
<g mask="url(#mask0_70_52)">
<path d="M46.7922 12.4717C47.135 12.1107 47.6588 12.0169 48.1374 12.026C50.6374 12.0587 53.1362 12.1266 55.6374 12.1413C55.5862 12.9976 55.6231 13.8562 55.5755 14.7126C53.9255 14.6707 52.2743 14.6481 50.6231 14.6266C50.3362 14.6323 49.9374 14.5938 49.8005 14.9151C49.7029 15.2703 49.7565 15.6481 49.722 16.0124C51.6184 16.0554 53.5148 16.0949 55.4112 16.1006C55.4136 16.8653 55.3648 17.6288 55.3803 18.3925C53.485 18.3868 51.591 18.3336 49.6958 18.3054C49.7089 18.7363 49.6327 19.1707 49.6934 19.5994C49.7481 19.8653 50.0517 19.932 50.2827 19.94C52.0339 19.9717 53.7862 19.9818 55.535 20.0361C55.5219 20.8845 55.516 21.733 55.4886 22.5813C53.4886 22.5509 51.4898 22.5112 49.491 22.4818C48.8101 22.4343 48.122 22.5157 47.4458 22.4084C46.9481 22.3348 46.4696 21.9909 46.3208 21.4988C46.2315 21.1323 46.2684 20.7499 46.2624 20.3766C46.3065 18.1107 46.3398 15.8461 46.3791 13.5813C46.3791 13.1775 46.4862 12.7534 46.7922 12.4717Z" fill="#2A2A2A"/>
<path d="M32.9824 14.8935C36.4789 14.0202 39.9753 13.1435 43.467 12.2578C43.7039 13.0983 43.8967 13.9501 44.1181 14.7951C42.9205 15.1039 41.7205 15.4026 40.5193 15.7023C41.1467 18.2272 41.7896 20.7476 42.4205 23.2702C41.3265 23.5553 40.2277 23.829 39.13 24.1016C38.4955 21.5779 37.867 19.0541 37.2217 16.5327C36.0217 16.8347 34.8181 17.1254 33.6229 17.4398C33.4074 16.5915 33.1979 15.742 32.9824 14.8935Z" fill="#2A2A2A"/>
<path d="M62.7832 14.7585C63.113 14.35 63.569 13.9971 64.119 13.9949C64.8832 13.9789 65.6344 14.2221 66.3237 14.5379C66.9249 14.806 67.3368 15.4123 67.382 16.0673C67.6999 19.4281 68.0011 22.7901 68.3154 26.151C67.1785 25.798 66.0428 25.4417 64.9047 25.091C64.8523 24.3296 64.8082 23.5673 64.7594 22.8048C63.5797 22.4314 62.394 22.0774 61.2178 21.6927C60.7261 22.2833 60.2642 22.8975 59.7832 23.496C58.6499 23.1419 57.5154 22.7889 56.3809 22.4371C58.4916 19.859 60.6511 17.3195 62.7832 14.7585ZM62.7059 19.6385C63.3713 19.8432 64.0356 20.0514 64.7011 20.2618C64.638 19.2595 64.6618 18.2527 64.5439 17.255C63.8713 18.0005 63.3154 18.8432 62.7059 19.6385Z" fill="#2A2A2A"/>
<path d="M74.1326 19.298C74.491 18.7879 75.135 18.4937 75.754 18.6249C76.6207 18.7957 77.3552 19.3603 77.96 19.9779C78.56 20.5887 78.6814 21.5367 78.404 22.3263C77.8564 23.9269 77.3088 25.5277 76.7564 27.1261C76.6576 27.401 76.6314 27.694 76.6017 27.9824C76.8897 27.8817 77.1778 27.7675 77.4278 27.5865C78.8195 26.6306 80.2148 25.6838 81.6088 24.7324C82.2374 24.3037 83.0755 24.1578 83.7862 24.4711C84.4564 24.7663 85.0505 25.2347 85.5314 25.7834C85.8517 26.1701 86.1017 26.66 86.0421 27.1781C86.0029 27.6838 85.6517 28.0786 85.3564 28.4632C83.6957 30.6419 82.0326 32.8206 80.3743 35.0017C79.4588 34.315 78.5517 33.6193 77.6409 32.9269C78.929 31.298 80.2183 29.6702 81.5112 28.0447C81.6243 27.9055 81.6814 27.7336 81.7457 27.5673C81.3374 27.746 80.9874 28.0231 80.6267 28.2766C79.4921 29.0718 78.3552 29.8613 77.2231 30.6578C76.7945 30.9632 76.3255 31.3206 75.7648 31.2641C75.0993 31.2007 74.541 30.7653 74.0791 30.315C73.6683 29.9191 73.466 29.3093 73.6481 28.7562C74.2767 26.8161 75.054 24.9236 75.6528 22.9734C75.4767 23.1012 75.2945 23.2246 75.1683 23.4032C73.9671 25.0379 72.7624 26.6701 71.56 28.3048C70.6588 27.608 69.7469 26.9281 68.8457 26.2324C70.604 23.9179 72.3683 21.608 74.1326 19.298Z" fill="#2A2A2A"/>
<path d="M20.432 22.0055C21.901 20.9795 23.3784 19.9637 24.8534 18.9434C24.9951 19.1469 25.1379 19.3505 25.2808 19.5565C23.8272 20.5723 22.3641 21.5768 20.9058 22.5881C20.4831 22.8856 20.0546 23.3959 20.226 23.9467C20.3808 24.4128 20.6701 24.8268 21.0022 25.1843C21.3343 25.5372 21.8581 25.6459 22.3165 25.5112C23.8391 25.1062 25.3582 24.6798 26.8796 24.2725C27.4522 24.1276 28.0772 24.0055 28.6462 24.225C29.3296 24.4738 29.7831 25.0949 30.0903 25.7238C30.3617 26.2522 30.4855 26.8844 30.2986 27.4603C30.1474 27.8981 29.7879 28.2205 29.4189 28.4784C27.826 29.5813 26.2308 30.682 24.6379 31.7849C24.4939 31.5779 24.3498 31.3709 24.2058 31.165C25.8296 30.0497 27.445 28.9275 29.0617 27.8042C29.4189 27.5756 29.6403 27.1346 29.5272 26.7125C29.382 26.1549 29.0629 25.6379 28.6451 25.2419C28.2248 24.8415 27.5867 24.8731 27.0629 25.0145C25.6343 25.4128 24.207 25.8223 22.7784 26.2216C22.0748 26.4195 21.2474 26.475 20.632 26.0123C20.0593 25.5801 19.6224 24.9512 19.4177 24.2645C19.182 23.3811 19.7177 22.4954 20.432 22.0055Z" fill="#2A2A2A"/>
<path d="M11.5193 30.5231C12.6848 29.1996 13.83 27.8579 15.0086 26.5469C15.1931 26.7097 15.3788 26.8715 15.5622 27.0356C14.3967 28.3828 13.2205 29.72 12.0503 31.0627C11.7824 31.3862 11.5419 31.8093 11.6324 32.2448C11.7979 32.8127 12.3026 33.1928 12.7681 33.5163C13.1622 33.7934 13.6967 33.7776 14.1086 33.5491C15.6467 32.7222 17.1348 31.8047 18.686 31.0039C19.3681 30.6351 20.236 30.626 20.8872 31.0683C21.5467 31.5095 22.1348 32.1487 22.3324 32.9326C22.4717 33.5039 22.2598 34.1012 21.8812 34.5333C20.5776 36.0457 19.2526 37.5412 17.9431 39.0491C17.7526 38.8851 17.5634 38.72 17.3741 38.5537C18.6634 37.074 19.9574 35.6 21.2467 34.1203C21.5288 33.8218 21.6455 33.367 21.4598 32.9869C21.1967 32.4552 20.7431 32.0208 20.2336 31.7233C19.7003 31.419 19.0693 31.6396 18.58 31.9235C17.2598 32.6735 15.9503 33.4406 14.6276 34.1871C13.9848 34.5469 13.1729 34.7177 12.4872 34.3693C11.8288 34.0152 11.1931 33.4971 10.9217 32.7798C10.6348 31.9869 10.9812 31.1203 11.5193 30.5231Z" fill="#2A2A2A"/>
<path d="M82.4265 39.2923C84.9432 37.5162 87.4432 35.7199 89.9623 33.9473C92.3992 37.3646 94.5551 40.997 96.2194 44.8544C97.823 48.5546 98.9742 52.4597 99.5337 56.4563C100.132 60.6508 100.037 64.9235 99.467 69.1157C98.5277 75.9212 96.1384 82.5207 92.5099 88.3556C89.5646 93.1011 85.8194 97.3511 81.4742 100.864C76.692 104.744 71.1813 107.727 65.3099 109.597C57.8647 111.966 49.842 112.573 42.1396 111.228C34.1682 109.836 26.6408 106.245 20.3873 101.137C16.6004 98.0626 13.2634 94.4495 10.4277 90.4857C12.9361 88.695 15.4492 86.9111 17.9634 85.1282C22.3956 91.3544 28.4527 96.4891 35.5099 99.4958C40.1634 101.487 45.2254 102.515 50.2873 102.504C57.8789 102.506 65.4539 100.302 71.8468 96.2108C77.4444 92.6531 82.1432 87.6983 85.3956 81.9201C87.517 78.1554 89.0289 74.0468 89.8384 69.8024C90.7801 64.8137 90.8456 59.6192 89.6825 54.6611C88.4075 49.0898 85.7527 43.9133 82.4265 39.2923Z" fill="#2A2A2A"/>
<path d="M7.51567 35.9434C7.74186 36.062 7.96804 36.1798 8.19423 36.2974C7.30613 38.0044 6.45019 39.7273 5.56091 41.4343C5.44424 41.6707 5.32043 41.9195 5.32996 42.1899C5.449 42.4524 5.74304 42.5519 5.97518 42.6866C6.88114 43.1391 7.77638 43.6118 8.68471 44.0598C9.68114 42.1153 10.6728 40.1685 11.6621 38.2205C11.8847 38.3324 12.1097 38.4456 12.3323 38.5598C11.349 40.5157 10.3311 42.4547 9.35971 44.415C10.1883 44.8155 11.0002 45.2499 11.8252 45.6605C12.2133 45.8449 12.5788 46.1254 13.0204 46.1605C13.4157 45.846 13.5859 45.3472 13.8169 44.9162C14.6038 43.3731 15.3871 41.8279 16.18 40.2884C16.399 40.4015 16.6216 40.5145 16.8419 40.6266C15.98 42.346 15.0895 44.0519 14.2252 45.7703C13.9978 46.1911 13.8276 46.7228 13.3514 46.9275C12.9311 47.122 12.4716 46.932 12.0895 46.7397C10.0395 45.6956 7.98948 44.6504 5.93829 43.6085C5.46329 43.3641 4.90733 43.1582 4.62638 42.673C4.42043 42.3223 4.49424 41.8901 4.67281 41.5451C5.60852 39.673 6.5871 37.82 7.51567 35.9434Z" fill="#2A2A2A"/>
<path d="M33.1183 43.4925C34.4266 42.1598 36.3457 41.6701 38.1635 41.6644C48.6314 41.661 59.0992 41.6644 69.5659 41.6621C69.5683 45.0377 69.5671 48.4133 69.5671 51.7888C62.0814 51.7877 54.5969 51.7877 47.1123 51.7888C46.4802 51.7967 45.7873 51.9382 45.3421 52.4212C44.8659 52.9653 44.7457 53.7187 44.7361 54.4178C44.7361 55.4359 44.7385 56.454 44.7373 57.4721C50.7766 57.4721 56.8171 57.4721 62.8576 57.4721C62.8576 60.6022 62.8576 63.7312 62.8576 66.8613C56.8171 66.8613 50.7766 66.8613 44.7373 66.8613C44.7373 72.3284 44.7373 77.7967 44.7373 83.2639C40.2445 83.2639 35.7528 83.2639 31.2599 83.2639C31.2611 71.6497 31.2576 60.0354 31.2623 48.4201C31.2707 46.6339 31.785 44.7515 33.1183 43.4925Z" fill="#2A2A2A"/>
<path d="M2.22314 47.627C5.22671 48.2355 8.22312 48.8815 11.2267 49.4935C11.5707 49.5647 11.941 49.6609 12.1815 49.937C12.4326 50.2118 12.4196 50.636 12.2815 50.9606C12.1517 51.2797 11.816 51.4312 11.5148 51.5489C8.49694 52.6428 5.48028 53.7412 2.46123 54.8362C2.0517 54.9923 1.58265 55.0805 1.29813 55.446C1.6386 55.7254 2.09456 55.7322 2.50408 55.8317C5.26956 56.4098 8.03742 56.9822 10.8029 57.5647C10.7458 57.8362 10.6898 58.11 10.6327 58.3827C7.54337 57.731 4.45171 57.0918 1.36123 56.446C1.00528 56.3792 0.626707 56.1847 0.523135 55.8114C0.404087 55.3747 0.545754 54.8283 0.952897 54.5885C1.25528 54.4086 1.59813 54.3147 1.92432 54.1915C5.00527 53.0749 8.08503 51.9561 11.1636 50.8362C11.3065 50.774 11.6124 50.6405 11.466 50.4493C11.2505 50.3192 10.9886 50.3056 10.7481 50.2468C7.85051 49.6496 4.95409 49.0398 2.05647 48.438C2.11361 48.1677 2.16837 47.8973 2.22314 47.627Z" fill="#2A2A2A"/>
<path d="M0.0800781 60.4037C0.325316 60.3868 0.57174 60.3755 0.815788 60.3574C0.899121 61.8019 0.995555 63.2454 1.05508 64.6911C4.28365 64.535 7.50983 64.3223 10.7396 64.1594C10.7539 64.4343 10.767 64.7092 10.7836 64.9853C7.55865 65.165 4.33246 65.3381 1.10865 65.5396C1.20389 66.9853 1.27055 68.4321 1.3646 69.8778C1.11698 69.8879 0.870556 69.9015 0.622937 69.9162C0.433651 66.7466 0.257459 63.5746 0.0800781 60.4037Z" fill="#2A2A2A"/>
<path d="M1.53711 73.5572C4.92044 72.7563 8.29901 71.9396 11.6812 71.1387C11.7466 71.408 11.8133 71.6783 11.8788 71.9497C8.49306 72.7575 5.11092 73.572 1.72401 74.3706C1.66092 74.0991 1.59782 73.8276 1.53711 73.5572Z" fill="#2A2A2A"/>
<path d="M7.7505 77.9739C7.98146 77.8754 8.21241 77.7771 8.44336 77.6797C9.04574 79.113 9.65765 80.5429 10.266 81.975C11.7815 81.3336 13.2945 80.6887 14.81 80.0485C14.9207 80.3042 15.0315 80.5587 15.1434 80.8155C12.3327 82.0225 9.50884 83.2023 6.69694 84.406C6.35527 84.561 5.94217 84.6503 5.59336 84.4648C5.27313 84.3256 5.1386 83.9829 5.00527 83.6877C4.23622 81.8754 3.46479 80.0643 2.69336 78.2533C2.92193 78.1515 3.15289 78.052 3.38384 77.9546C3.97193 79.3314 4.55527 80.7103 5.14218 82.0881C5.38861 82.6447 5.5874 83.2261 5.90526 83.7487C6.2005 83.6819 6.49097 83.5892 6.76717 83.4648C7.69931 83.0565 8.64099 82.6729 9.57313 82.2668C8.96599 80.8359 8.35526 79.406 7.7505 77.9739Z" fill="#2A2A2A"/>
</g>
</svg>
