<svg width="155" height="124" viewBox="0 0 155 124" fill="none" xmlns="http://www.w3.org/2000/svg">
<path d="M32.666 16.7899C34.8621 15.5029 37.8179 15.88 39.6766 17.5965C38.3894 20.9451 37.2617 24.3612 36.4748 27.8637C33.6648 28.3186 30.7259 26.4888 29.9153 23.7693C29.0335 21.1734 30.2545 18.0938 32.666 16.7899Z" fill="#2A2A2A"/>
<path d="M40.7844 20.5693C41.1422 19.4599 41.5187 18.3505 42.024 17.2969C40.3502 25.7883 40.3689 34.5486 41.6001 43.0975L41.3559 43.0518C40.7623 42.903 40.1654 42.7711 39.5617 42.673C39.4633 42.6493 39.2683 42.602 39.1716 42.5783C38.5442 35.2318 38.6035 27.6756 40.7844 20.5693Z" fill="#2A2A2A"/>
<path d="M0.285156 44.0442C2.51858 43.985 4.75201 44.0594 6.98713 44.0662C8.6287 44.1507 10.2686 44.2438 11.9102 44.2979C12.2459 44.3774 12.6088 44.374 12.9209 44.5329C16.3126 46.4203 19.6669 48.377 22.9433 50.4588C23.4351 50.77 23.9235 51.0896 24.4119 51.4093C31.6565 56.1158 38.4789 61.558 44.1939 68.0555C42.3777 61.536 40.7649 54.9371 39.8661 48.2248C40.7666 48.4632 41.6722 48.6865 42.5879 48.8556C44.8197 59.5658 48.459 69.9293 52.5815 80.0477C51.1096 80.7495 49.6494 81.4699 48.1808 82.1785C45.71 77.9912 42.7219 74.1184 39.3743 70.5923C34.5242 65.4714 28.9551 61.076 23.1095 57.1441C22.4905 56.728 21.8664 56.3171 21.2407 55.9112C14.5031 51.5361 7.406 47.7513 0.285156 44.0442Z" fill="#2A2A2A"/>
<path d="M77.4195 73.2849C78.9017 73.0481 80.411 73.0954 81.905 73.131C83.3499 73.2088 84.9287 73.4286 86.0293 74.4535C87.0892 75.4682 87.3436 77.0105 87.408 78.4108C87.4419 79.8652 87.4945 81.3484 87.135 82.7707C86.8586 83.9393 86.092 85.0216 84.9575 85.4918C83.1989 86.2427 81.2351 86.126 79.3629 86.1192C77.7519 86.0634 75.9373 85.9078 74.7248 84.7189C73.5479 83.4979 73.4122 81.69 73.3868 80.0851C73.3885 78.4193 73.3393 76.6249 74.2245 75.1452C74.8927 74.0273 76.1815 73.4827 77.4195 73.2849ZM79.0577 76.4186C78.0453 76.7619 77.6145 77.9187 77.6264 78.9046C77.6264 80.0174 77.4941 81.2824 78.2216 82.2193C78.6744 82.8383 79.4935 82.9668 80.2109 82.9652C81.0266 82.9804 81.9983 82.9685 82.5528 82.265C83.3923 81.296 83.1752 79.9261 83.1888 78.7474C83.2091 77.6768 82.5291 76.466 81.381 76.329C80.6128 76.2427 79.8106 76.2106 79.0577 76.4186Z" fill="#2A2A2A"/>
<path d="M89.4624 73.7582C89.9287 73.3066 90.6122 73.2069 91.2362 73.2153C93.6664 73.2238 96.0965 73.2052 98.5267 73.2255C99.4729 73.2373 100.487 73.5705 101.043 74.3822C101.874 75.5914 101.922 77.1676 101.65 78.5645C101.45 79.4727 101.13 80.4739 100.289 80.9897C99.7104 81.3736 98.993 81.3702 98.3249 81.3668C99.4458 82.9108 100.609 84.4228 101.749 85.9516C100.092 85.9516 98.4351 85.9583 96.7799 85.9482C95.8828 84.4058 94.7772 82.9819 94.0344 81.3533C93.7597 80.7614 93.5714 80.0646 93.8054 79.427C94.1039 78.7303 94.9298 78.4597 95.6386 78.4884C96.2797 78.4766 97.153 78.5848 97.4956 77.8965C97.9077 77.2978 97.3871 76.4303 96.6901 76.4066C95.7167 76.3575 94.7381 76.3812 93.7647 76.3914C93.3119 76.3541 92.9694 76.7922 93.0169 77.22C93.0101 80.1289 93.0152 83.0394 93.0152 85.9499C91.6398 85.9566 90.2662 85.9499 88.8926 85.9533C88.8909 82.4779 88.8892 79.0025 88.8926 75.5272C88.896 74.9031 88.9892 74.2114 89.4624 73.7582Z" fill="#2A2A2A"/>
<path d="M106.936 73.2893C108.525 73.0424 110.143 73.0898 111.745 73.149C113.272 73.2487 114.993 73.5937 115.958 74.8959C116.965 76.2996 116.962 78.1142 116.97 79.7682C116.957 81.3799 116.892 83.159 115.844 84.4815C114.939 85.5926 113.445 85.9343 112.083 86.0594C110.633 86.1643 109.171 86.1642 107.721 86.0509C106.48 85.9224 105.15 85.6281 104.248 84.7031C103.329 83.7543 103.052 82.3912 102.964 81.1195C102.903 79.868 102.886 78.6064 103.039 77.3617C103.178 76.325 103.512 75.2545 104.277 74.5019C104.986 73.7984 105.969 73.4601 106.936 73.2893ZM108.449 76.4772C107.528 76.8915 107.156 77.9739 107.165 78.9176C107.163 80.0287 107.034 81.2852 107.76 82.2204C108.206 82.8309 109.012 82.9662 109.72 82.9662C110.54 82.9798 111.516 82.9798 112.079 82.2813C112.934 81.3072 112.715 79.9255 112.727 78.7366C112.746 77.6576 112.047 76.4484 110.891 76.325C110.082 76.2472 109.224 76.1931 108.449 76.4772Z" fill="#2A2A2A"/>
<path d="M60.011 73.2493C61.3847 73.2476 62.7583 73.2476 64.1319 73.2493C64.1336 77.4942 64.1336 81.739 64.1319 85.9839C62.7583 85.9856 61.3847 85.9839 60.011 85.9856C60.0093 81.739 60.0093 77.4942 60.011 73.2493Z" fill="#2A2A2A"/>
<path d="M65.1825 77.9619C66.3 76.3925 67.4278 74.8298 68.5385 73.2536C70.1699 73.2435 71.8013 73.2503 73.4344 73.2503C72.0845 74.8552 70.733 76.4584 69.3797 78.0583C69.0812 78.4185 68.7251 78.7736 68.6352 79.2522C68.547 79.7681 68.8285 80.2551 69.1677 80.6204C70.8144 82.4097 72.4644 84.1955 74.1094 85.9865C72.4458 85.973 70.7787 86.0119 69.1151 85.9662C67.7737 84.1397 66.2559 82.4384 64.9773 80.5697C64.5686 79.7494 64.65 78.7094 65.1825 77.9619Z" fill="#2A2A2A"/>
<path d="M118.434 84.3286C118.427 80.6351 118.43 76.9416 118.434 73.248C119.806 73.248 121.177 73.2497 122.549 73.248C122.563 76.2025 122.539 79.1587 122.561 82.1132C122.509 82.5343 122.877 82.8658 123.29 82.8133C125.537 82.8319 127.786 82.8133 130.033 82.8218C130.033 83.8754 130.033 84.9307 130.033 85.9843C126.723 85.9758 123.411 86.0063 120.101 85.9708C119.207 85.9826 118.391 85.2368 118.434 84.3286Z" fill="#2A2A2A"/>
<path d="M130.588 75.0196C130.548 74.0167 131.494 73.2371 132.459 73.2591C135.589 73.2371 138.723 73.2557 141.854 73.2506C141.856 74.2822 141.856 75.3121 141.854 76.3438C139.79 76.3438 137.728 76.3438 135.664 76.3438C135.323 76.3387 134.848 76.3827 134.743 76.7784C134.663 77.2181 134.706 77.6697 134.718 78.1144C137.036 78.0958 139.352 78.1127 141.671 78.106C141.674 79.0277 141.671 79.9494 141.674 80.871C139.352 80.8744 137.031 80.8744 134.709 80.8694C134.709 81.4004 134.67 81.9331 134.73 82.4624C134.792 82.8125 135.193 82.9038 135.498 82.8903C137.635 82.8954 139.773 82.8886 141.91 82.8937C141.908 83.9236 141.91 84.9552 141.91 85.9852C138.806 85.9852 135.703 85.9885 132.6 85.9835C131.947 85.9987 131.24 85.7822 130.86 85.2208C130.558 84.8166 130.583 84.2855 130.578 83.8086C130.588 80.8795 130.566 77.9487 130.588 75.0196Z" fill="#2A2A2A"/>
<path d="M143.862 73.7171C144.312 73.3247 144.933 73.2401 145.509 73.2486C148.652 73.2503 151.794 73.2486 154.936 73.2503C154.933 74.2836 154.95 75.3186 154.926 76.3519C152.571 76.3468 150.213 76.3198 147.86 76.3654C147.076 76.5092 147.364 77.5239 147.31 78.0871C149.165 78.0887 151.021 78.0871 152.876 78.0888C152.876 79.046 152.876 80.0049 152.876 80.9621C151.021 80.9637 149.165 80.9621 147.312 80.9638C147.31 82.6363 147.31 84.3106 147.312 85.9849C145.936 85.9865 144.561 85.9865 143.188 85.9849C143.189 82.4435 143.186 78.9005 143.189 75.3592C143.181 74.7521 143.374 74.1094 143.862 73.7171Z" fill="#2A2A2A"/>
<path d="M27.1562 40.591C28.6554 37.7938 30.3241 35.0507 32.4507 32.6797C32.3354 33.1126 31.9843 33.4153 31.7384 33.7739C30.1816 35.9048 29.0081 38.2859 27.9652 40.7009C27.6955 40.6637 27.4259 40.6265 27.1562 40.591Z" fill="#2A2A2A"/>
<path d="M24.8393 45.5078C25.2582 45.5636 25.6771 45.6211 26.0942 45.682C25.4651 47.571 24.9156 49.4838 24.412 51.41C23.9236 51.0904 23.4352 50.7708 22.9434 50.4596C23.5115 48.7853 24.1474 47.1347 24.8393 45.5078Z" fill="#2A2A2A"/>
<path d="M21.2398 55.9121C21.8656 56.318 22.4896 56.7289 23.1086 57.145C21.9181 63.5393 21.2262 70.0368 21.233 76.5462C21.2398 84.0347 22.1047 91.5706 24.3228 98.7445C23.2087 99.9267 22.0843 101.102 21.0448 102.35C19.3235 97.5336 18.4145 92.4567 17.999 87.3697C17.1935 76.7998 18.4586 66.1251 21.2398 55.9121Z" fill="#2A2A2A"/>
<path d="M79.9762 90.5268C81.0293 89.6812 82.4657 89.5628 83.7664 89.6626C84.9484 89.7387 86.1287 90.2917 86.8088 91.2844C88.9879 94.3471 91.1637 97.4099 93.3361 100.476C93.4717 100.643 93.5803 100.855 93.7872 100.951C94.1331 101.046 94.1501 100.62 94.1433 100.396C94.145 96.8754 94.1433 93.3561 94.1433 89.8368C95.6322 89.8351 97.1229 89.8368 98.6118 89.8351C98.6135 94.824 98.6152 99.8113 98.6118 104.8C98.6186 105.778 98.193 106.792 97.345 107.33C96.2495 108.034 94.8725 108.047 93.6193 107.919C92.5204 107.809 91.5029 107.2 90.8669 106.304C88.6606 103.212 86.4679 100.111 84.265 97.0175C84.109 96.8213 83.9157 96.5051 83.6172 96.664C83.4256 96.8349 83.4595 97.1071 83.4476 97.3371C83.4442 100.818 83.4629 104.3 83.4391 107.782C81.9553 107.775 80.4714 107.773 78.9892 107.784C78.9689 102.833 78.9876 97.8834 78.9791 92.9333C78.9452 92.0387 79.2538 91.095 79.9762 90.5268Z" fill="#2A2A2A"/>
<path d="M35.2995 90.6174C35.91 90.0035 36.8122 89.8242 37.65 89.8344C42.1134 89.8361 46.5769 89.8344 51.0403 89.8361C51.0403 91.2871 51.0403 92.7381 51.0403 94.1892C47.8165 94.1925 44.5927 94.1841 41.3706 94.1925C40.9535 94.1689 40.4718 94.3634 40.3752 94.8115C40.2395 95.4136 40.3141 96.0393 40.3006 96.6532C42.9122 96.6532 45.5238 96.6515 48.1371 96.6532C48.1387 98.0028 48.1371 99.3506 48.1371 100.7C45.5238 100.702 42.9122 100.699 40.2989 100.702C40.2972 103.059 40.2989 105.419 40.2989 107.776C38.3622 107.776 36.4256 107.778 34.4889 107.776C34.4906 102.777 34.4855 97.7778 34.4906 92.7787C34.4872 91.9957 34.7162 91.1704 35.2995 90.6174Z" fill="#2A2A2A"/>
<path d="M52.4559 107.775C52.4593 101.794 52.4491 95.8137 52.461 89.832C54.3943 89.8371 56.3275 89.8337 58.2608 89.8337C58.2676 95.8137 58.2625 101.795 58.2642 107.775C56.3275 107.777 54.3926 107.775 52.4559 107.775Z" fill="#2A2A2A"/>
<path d="M59.2942 89.8354C65.5112 89.832 71.7282 89.8388 77.9451 89.832C77.957 91.3186 77.9434 92.8051 77.9519 94.2917C75.8101 94.2984 73.6699 94.2917 71.5297 94.295C71.5264 98.7885 71.5297 103.282 71.5281 107.777C69.588 107.767 67.648 107.792 65.7096 107.764C65.7249 103.272 65.7215 98.7817 65.7113 94.29C63.5712 94.3001 61.4327 94.2917 59.2942 94.295C59.2925 92.8085 59.2925 91.322 59.2942 89.8354Z" fill="#2A2A2A"/>
<path d="M101.833 90.6743C102.415 90.0452 103.303 89.8338 104.134 89.8372C108.445 89.8355 112.756 89.8355 117.067 89.8372C117.068 91.2882 117.068 92.7393 117.067 94.1903C114.106 94.1937 111.146 94.1852 108.185 94.1937C107.741 94.1903 107.171 94.3188 107.048 94.8126C106.941 95.4265 107.009 96.0557 106.995 96.6763C110.266 96.6797 113.538 96.6763 116.811 96.6797C116.809 97.9768 116.811 99.2757 116.809 100.574C113.538 100.576 110.265 100.573 106.993 100.576C107.007 101.305 106.956 102.036 107.019 102.765C107.073 103.231 107.582 103.436 108.002 103.414C111.05 103.426 114.097 103.414 117.145 103.419C117.146 104.872 117.146 106.324 117.145 107.779C112.742 107.776 108.341 107.784 103.939 107.774C103.035 107.787 102.075 107.446 101.556 106.673C101.134 106.074 101.188 105.308 101.182 104.613C101.187 100.61 101.183 96.6087 101.183 92.6057C101.171 91.9157 101.334 91.1834 101.833 90.6743Z" fill="#2A2A2A"/>
<path d="M120.462 90.9786C121.241 90.1906 122.372 89.8422 123.462 89.8371C127.451 89.8286 131.441 89.8388 135.43 89.832C135.442 91.3186 135.427 92.8034 135.438 94.29C132.232 94.3103 129.026 94.2714 125.821 94.3086C125.492 94.29 125.079 94.4236 125.055 94.8125C125.006 95.3673 125.643 95.5753 126.069 95.7173C128.306 96.3363 130.556 96.9096 132.798 97.5184C133.899 97.8364 135.045 98.364 135.645 99.3906C136.358 100.607 136.378 102.071 136.347 103.438C136.317 104.675 136.012 106.012 135.05 106.871C134.316 107.578 133.259 107.775 132.272 107.772C128.029 107.787 123.785 107.762 119.542 107.784C119.509 106.292 119.521 104.801 119.535 103.309C122.82 103.321 126.103 103.311 129.388 103.316C129.768 103.299 130.286 103.323 130.481 102.918C130.629 102.401 130.115 102.054 129.681 101.954C127.215 101.258 124.748 100.574 122.282 99.8776C121.239 99.5884 120.339 98.8325 119.901 97.8431C119.353 96.6356 119.321 95.2776 119.355 93.9788C119.386 92.8981 119.664 91.7566 120.462 90.9786Z" fill="#2A2A2A"/>
<path d="M138.764 91.295C139.54 90.2803 140.858 89.8254 142.106 89.8372C146.074 89.8355 150.043 89.8355 154.013 89.8372C154.013 91.3238 154.013 92.8103 154.013 94.2951C150.896 94.2985 147.78 94.2918 144.663 94.2985C144.27 94.2951 143.688 94.3036 143.629 94.8143C143.595 95.3978 144.268 95.594 144.714 95.7411C146.843 96.3195 148.976 96.8759 151.108 97.4458C152.28 97.7553 153.528 98.2626 154.191 99.3399C154.961 100.608 154.962 102.156 154.918 103.592C154.883 104.88 154.472 106.265 153.395 107.069C152.464 107.801 151.218 107.786 150.092 107.779C146.095 107.777 142.099 107.779 138.104 107.777C138.104 106.291 138.102 104.804 138.104 103.316C141.419 103.314 144.736 103.319 148.052 103.314C148.435 103.312 149.051 103.269 149.081 102.768C149.103 102.272 148.591 102.042 148.189 101.934C145.771 101.258 143.351 100.581 140.933 99.9014C140.088 99.6714 139.311 99.1657 138.818 98.4385C138.058 97.3325 137.936 95.944 137.923 94.6418C137.912 93.4868 138.019 92.2353 138.764 91.295Z" fill="#2A2A2A"/>
<path d="M2.74532 39.2293C3.06584 39.1532 3.39822 39.1836 3.72552 39.1718C11.5569 39.0686 19.3951 39.5557 27.157 40.5923C27.4266 40.6279 27.6963 40.6651 27.9659 40.7023C31.8545 41.2164 35.7074 41.9487 39.5604 42.6742C40.1641 42.7723 40.761 42.9042 41.3546 43.053C45.1685 43.951 48.9876 44.8457 52.7557 45.9263C59.7663 47.8898 66.66 50.254 73.4467 52.8821C73.1228 54.3095 72.536 55.6929 71.6983 56.897C71.4066 57.2758 70.9538 57.8119 70.4196 57.5633C61.3248 54.1234 52.0587 51.0861 42.5875 48.8571C41.6717 48.688 40.7661 48.4648 39.8656 48.2263C35.3191 47.1659 30.7149 46.3508 26.0937 45.6828C25.6765 45.6219 25.2576 45.5644 24.8388 45.5086C20.5466 44.9505 16.2358 44.4736 11.9097 44.2994C10.2681 44.2453 8.6282 44.1523 6.98663 44.0677C4.68028 43.9713 2.37054 43.973 0.0625 43.9984C0.42541 42.845 0.918901 41.7305 1.52601 40.6837C1.8584 40.1476 2.21792 39.5945 2.74532 39.2293Z" fill="#2A2A2A"/>
<path d="M62.4009 63.2087C62.696 63.2087 62.9911 63.207 63.2878 63.207C63.2912 63.3051 63.3014 63.4996 63.3065 63.5977C63.9153 63.6231 64.5869 63.5064 65.1431 63.8243C65.701 64.2014 65.7672 64.9405 65.7672 65.5544C65.7587 66.1649 65.7265 66.9158 65.1719 67.3014C64.614 67.6447 63.9204 67.5026 63.2997 67.5348C63.298 67.6498 63.2946 67.8814 63.2929 67.9964C63.0012 67.9998 62.7112 68.0032 62.4213 68.0083C62.4094 67.8899 62.3873 67.6531 62.3772 67.5348C61.6259 67.5094 60.5999 67.7072 60.1658 66.9141C59.8215 66.1023 59.8232 65.1197 60.1353 64.2978C60.5321 63.4438 61.6089 63.6112 62.3789 63.5977C62.3839 63.5013 62.3941 63.3068 62.4009 63.2087ZM60.9544 64.7612C60.8085 65.2703 60.8153 65.8317 60.9442 66.3442C61.1765 66.9107 61.8939 66.7923 62.3856 66.8261C62.3907 65.9839 62.3992 65.1434 62.3789 64.3012C61.8955 64.3401 61.1918 64.2099 60.9544 64.7612ZM63.2997 64.3097C63.2929 65.1468 63.2946 65.9856 63.298 66.8245C63.7864 66.7923 64.4936 66.9107 64.7361 66.3577C64.8734 65.8402 64.8836 65.2669 64.7225 64.7545C64.48 64.2031 63.7813 64.3334 63.2997 64.3097Z" fill="#2A2A2A"/>
<path d="M66.4565 63.2091C66.7567 63.2091 67.0568 63.2091 67.3587 63.2091C67.3655 64.4893 67.3214 65.7712 67.3587 67.0514C68.2253 65.9336 68.8307 64.6347 69.643 63.4763C69.9618 62.9503 70.9658 63.0704 71.0031 63.7418C71.0607 65.159 71.0065 66.5796 71.0268 67.9968C70.725 67.9985 70.4214 67.9985 70.1212 68.0002C70.1178 66.72 70.1636 65.4397 70.1314 64.1595C69.2597 65.2841 68.6272 66.5796 67.8183 67.7482C67.6012 68.0881 67.1128 68.1253 66.7719 67.9731C66.4396 67.8074 66.4599 67.3897 66.4531 67.0768C66.4548 65.7881 66.4531 64.4978 66.4565 63.2091Z" fill="#2A2A2A"/>
<path d="M71.3685 63.2107C72.9219 63.209 74.4752 63.209 76.0286 63.209C76.0286 63.4474 76.0286 63.6876 76.0286 63.926C75.4029 63.9277 74.7754 63.9277 74.1496 63.9277C74.1462 65.2841 74.1513 66.6421 74.1479 68.0001C73.8461 67.9984 73.5442 67.9984 73.2441 67.9984C73.2407 66.6404 73.2475 65.2841 73.2407 63.926C72.6166 63.9277 71.9925 63.9277 71.3685 63.926C71.3668 63.6876 71.3668 63.4474 71.3685 63.2107Z" fill="#2A2A2A"/>
<path d="M76.373 63.2116C76.6732 63.2082 76.9734 63.2048 77.2735 63.2031C77.282 63.8576 77.2803 64.5138 77.2786 65.1683C78.1164 65.1649 78.9558 65.1953 79.7936 65.148C79.7698 64.5019 79.7783 63.8559 79.7766 63.2116C80.0785 63.2099 80.382 63.2082 80.6856 63.2082C80.6839 64.8047 80.6873 66.4028 80.6822 67.9993C80.3803 67.9993 80.0802 67.9976 79.78 67.9993C79.7766 67.2958 79.7783 66.5939 79.7783 65.8904C78.9456 65.8904 78.113 65.8904 77.2803 65.8904C77.2786 66.5939 77.2803 67.2958 77.2786 67.9993C76.9768 67.9993 76.6749 67.9993 76.3764 67.9993C76.3731 66.4028 76.3764 64.8081 76.373 63.2116Z" fill="#2A2A2A"/>
<path d="M81.5169 63.8617C81.4983 63.5522 81.717 63.2157 82.0528 63.2258C83.1449 63.1835 84.2387 63.2207 85.3326 63.2106C85.3309 63.4473 85.3309 63.6875 85.3326 63.926C84.3625 63.9699 83.379 63.8363 82.4191 64.0004C82.4174 64.3978 82.4157 64.7952 82.4157 65.1943C83.3654 65.1943 84.3134 65.1926 85.263 65.1943C85.263 65.4328 85.2613 65.6712 85.263 65.9114C84.3134 65.9131 83.3654 65.9114 82.4157 65.9114C82.4089 66.3562 82.414 66.801 82.4395 67.2457C83.4112 67.3235 84.388 67.2593 85.3631 67.2863C85.3614 67.5231 85.3597 67.7598 85.3597 67.9983C84.2744 67.9932 83.189 68.0135 82.1037 67.9932C81.7849 68.0169 81.4898 67.7446 81.5203 67.4182C81.4983 66.2327 81.505 65.0472 81.5169 63.8617Z" fill="#2A2A2A"/>
<path d="M86.7558 63.4554C87.7071 63.0123 88.7992 63.2812 89.8117 63.2119C89.8083 63.4487 89.8066 63.6888 89.8066 63.9273C89.0418 63.9594 88.26 63.8427 87.507 64.0169C86.8185 64.2554 86.7727 65.1026 86.7744 65.7148C86.7642 66.2797 86.8779 67.0407 87.5325 67.1997C88.3041 67.3553 89.0994 67.2521 89.8829 67.2809C89.8829 67.5193 89.8829 67.7595 89.8846 67.9979C88.9739 67.9675 88.0531 68.0774 87.1509 67.9218C86.303 67.7493 85.8502 66.8665 85.8536 66.0615C85.8078 65.1466 85.8247 63.9476 86.7558 63.4554Z" fill="#2A2A2A"/>
<path d="M92.1017 63.2104C92.4019 63.2087 92.7021 63.207 93.0056 63.207C93.0073 64.5448 93.009 65.8808 93.0056 67.2168C93.8196 67.3487 94.6489 67.254 95.4714 67.2811C95.4748 65.9231 95.468 64.565 95.4748 63.2087C95.7749 63.2087 96.0751 63.2087 96.377 63.2087C96.3804 64.5684 96.3736 65.9264 96.3804 67.2861C96.5991 67.2845 96.8179 67.2828 97.0383 67.2828C97.0383 67.4603 97.0367 67.8189 97.0367 67.9981C95.5528 67.9846 94.0689 68.0303 92.5868 67.9778C92.2238 67.9592 92.0729 67.5703 92.1034 67.2591C92.095 65.9095 92.1034 64.56 92.1017 63.2104Z" fill="#2A2A2A"/>
<path d="M97.3819 64.0216C97.3582 63.7019 97.4701 63.269 97.8534 63.2335C98.9659 63.1726 100.085 63.225 101.201 63.2081C101.204 63.4415 101.209 63.6766 101.216 63.91C100.246 63.9675 99.2728 63.8677 98.3079 63.9725C98.2892 64.3767 98.2824 64.7826 98.2841 65.1885C99.2338 65.1986 100.185 65.1902 101.137 65.1936C101.135 65.432 101.135 65.6705 101.135 65.9106C100.185 65.9157 99.2338 65.9022 98.2841 65.9191C98.3147 66.3537 98.2044 66.8255 98.3621 67.2382C99.3118 67.338 100.275 67.2551 101.23 67.2788C101.23 67.5172 101.232 67.7574 101.233 67.9975C100.104 67.9857 98.9726 68.0297 97.8449 67.9772C97.5566 67.9637 97.3802 67.6728 97.3921 67.4107C97.3684 66.281 97.387 65.1513 97.3819 64.0216Z" fill="#2A2A2A"/>
<path d="M101.852 63.209C102.152 63.209 102.454 63.209 102.755 63.209C102.757 63.8635 102.755 64.518 102.757 65.1724C103.59 65.1724 104.422 65.1724 105.255 65.1724C105.253 64.518 105.253 63.8635 105.257 63.209C105.555 63.209 105.857 63.209 106.159 63.209C106.164 64.8055 106.161 66.4019 106.161 67.9984C105.857 67.9984 105.555 67.9984 105.255 68.0001C105.253 67.2982 105.253 66.5964 105.257 65.8946C104.424 65.8878 103.59 65.8912 102.757 65.8929C102.755 66.5947 102.755 67.2966 102.755 67.9984C102.454 67.9984 102.152 67.9984 101.852 67.9984C101.85 66.4019 101.848 64.8055 101.852 63.209Z" fill="#2A2A2A"/>
<path d="M106.506 63.207C108.058 63.2087 109.611 63.2104 111.163 63.207C111.163 63.4472 111.165 63.6856 111.166 63.9275C110.539 63.9275 109.913 63.9275 109.286 63.9275C109.284 65.2855 109.287 66.6418 109.286 67.9998C108.982 67.9981 108.68 67.9981 108.38 67.9981C108.37 66.6401 108.399 65.2804 108.363 63.9224C107.743 63.9292 107.124 63.9275 106.505 63.9258C106.503 63.6856 106.505 63.4472 106.506 63.207Z" fill="#2A2A2A"/>
<path d="M111.515 63.8691C111.449 63.448 111.864 63.1622 112.249 63.2112C113.156 63.2214 114.069 63.1639 114.973 63.2468C115.644 63.355 115.848 64.1177 115.821 64.6995C115.843 65.2948 115.705 66.115 115.003 66.2554C114.147 66.3636 113.277 66.2706 112.415 66.3044C112.417 66.8709 112.417 67.4375 112.409 68.004C112.107 68.0007 111.808 67.9973 111.51 67.9956C111.515 66.619 111.5 65.244 111.515 63.8691ZM112.414 63.9875C112.417 64.5185 112.414 65.0512 112.417 65.5823C113.139 65.5484 113.882 65.6685 114.593 65.5129C115.069 65.1544 115.049 63.9165 114.279 63.9351C113.657 63.9249 113.027 63.8793 112.414 63.9875Z" fill="#2A2A2A"/>
<path d="M118.178 63.2107C118.692 63.209 119.207 63.209 119.725 63.209C119.728 64.8055 119.726 66.4019 119.726 67.9984C119.209 68.0001 118.692 68.0001 118.176 67.9984C118.176 66.4019 118.175 64.8055 118.178 63.2107Z" fill="#2A2A2A"/>
<path d="M119.875 65.5468C120.175 64.6623 120.903 63.9825 121.403 63.2012C122.01 63.2113 122.617 63.2079 123.226 63.2096C122.592 63.9943 121.886 64.7215 121.31 65.5502C121.942 66.4381 122.768 67.167 123.474 67.9973C122.853 68.0007 122.232 67.999 121.612 67.9957C121.059 67.167 120.221 66.4871 119.875 65.5468Z" fill="#2A2A2A"/>
<path d="M124.722 63.2843C125.699 63.1 126.745 63.0661 127.707 63.3435C128.437 63.5583 128.743 64.3582 128.753 65.055C128.77 65.8786 128.858 66.8341 128.281 67.5055C127.685 68.0872 126.774 68.0399 126.002 68.0551C125.219 68.0433 124.222 68.0145 123.779 67.2501C123.382 66.4637 123.46 65.5369 123.537 64.688C123.596 64.0301 124.052 63.4162 124.722 63.2843ZM125.543 64.4292C125.187 64.6017 125.071 65.0245 125.075 65.3915C125.068 65.8583 125.037 66.4519 125.48 66.7444C126.05 66.9897 127.015 66.944 127.137 66.1813C127.186 65.608 127.315 64.8436 126.765 64.4614C126.387 64.2872 125.931 64.3108 125.543 64.4292Z" fill="#2A2A2A"/>
<path d="M129.34 63.8674C129.348 63.4142 129.823 63.1639 130.232 63.2096C131.246 63.2265 132.265 63.1588 133.276 63.2502C134.025 63.377 134.205 64.2446 134.171 64.8821C134.149 65.4774 134.098 66.3061 133.423 66.5277C132.587 66.7137 131.716 66.5716 130.866 66.619C130.868 67.079 130.868 67.5373 130.866 67.9973C130.349 67.999 129.833 67.999 129.318 67.9973C129.331 66.6207 129.286 65.2424 129.34 63.8674ZM130.917 64.412C130.871 64.7469 130.858 65.0851 130.863 65.4233C131.383 65.403 131.921 65.491 132.433 65.3607C132.72 65.1257 132.711 64.4678 132.269 64.4205C131.819 64.3663 131.366 64.4019 130.917 64.412Z" fill="#2A2A2A"/>
<path d="M136.047 63.2322C137.053 63.1358 138.16 63.0158 139.096 63.4775C140.012 64.0626 139.875 65.3141 139.844 66.251C139.844 67.0645 139.306 67.8779 138.45 67.9658C137.429 68.0792 136.305 68.1908 135.352 67.7308C134.426 67.1236 134.573 65.8468 134.612 64.8879C134.614 64.0711 135.206 63.3067 136.047 63.2322ZM136.712 64.4042C136.062 64.6697 136.154 65.5086 136.201 66.0751C136.242 67.171 138.228 67.1575 138.257 66.0616C138.282 65.5356 138.384 64.8676 137.916 64.4956C137.561 64.2808 137.1 64.318 136.712 64.4042Z" fill="#2A2A2A"/>
<path d="M141.619 63.8671C141.843 63.0062 143.127 62.9318 143.681 63.4798C144.389 64.9579 144.975 66.4968 145.632 67.9986C145.08 68.002 144.529 68.002 143.98 67.9935C143.578 66.8909 143.19 65.7832 142.761 64.6907C142.286 65.773 141.945 66.9095 141.504 68.0054C140.958 67.9986 140.414 67.9986 139.869 67.9986C140.449 66.6203 141.039 65.2454 141.619 63.8671Z" fill="#2A2A2A"/>
<path d="M145.781 63.8687C145.75 63.4713 146.147 63.1939 146.515 63.2159C147.68 63.1973 148.847 63.2142 150.013 63.2108C150.012 63.5947 150.012 63.9786 150.017 64.3625C149.191 64.3964 148.363 64.3355 147.541 64.393C147.219 64.4014 147.361 64.831 147.308 65.0339C148.187 65.0373 149.065 65.0339 149.946 65.0373C149.944 65.3823 149.944 65.729 149.946 66.0757C149.067 66.0774 148.189 66.074 147.312 66.0774C147.378 66.3142 147.176 66.808 147.548 66.8249C148.375 66.8621 149.204 66.8232 150.032 66.8384C150.032 67.224 150.032 67.6113 150.034 68.0003C148.862 67.9935 147.69 68.0121 146.52 67.9935C146.174 68.0189 145.764 67.7889 145.784 67.405C145.76 66.2262 145.765 65.0475 145.781 63.8687Z" fill="#2A2A2A"/>
<path d="M150.531 63.8694C150.526 63.4906 150.892 63.1981 151.26 63.2167C152.481 63.1896 153.706 63.2234 154.928 63.2031C154.933 63.5921 154.935 63.9811 154.935 64.37C153.997 64.3819 153.058 64.343 152.12 64.3954C152.088 64.5983 152.059 64.7996 152.032 65.0025C152.739 65.0516 153.45 65.0211 154.16 65.0296C154.158 65.3898 154.158 65.7483 154.16 66.1086C153.46 66.1103 152.763 66.1069 152.064 66.112C152.067 66.7411 152.066 67.3702 152.066 67.9993C151.547 67.9993 151.031 67.9993 150.516 67.9976C150.526 66.6227 150.492 65.2444 150.531 63.8694Z" fill="#2A2A2A"/>
</svg>
