<svg width="175" height="124" viewBox="0 0 175 124" fill="none" xmlns="http://www.w3.org/2000/svg">
<g clip-path="url(#clip0_27_269)">
<path d="M50.7418 78.3417C50.3104 79.4749 49.9182 80.1489 48.5749 80.1489C47.1336 80.1489 46.7904 79.2893 46.4178 78.3417L42.5546 68.2901C42.486 68.124 42.3193 67.7919 42.1821 67.7919C41.9467 67.7919 41.9467 68.1826 41.9467 68.251L42.0154 79.9731H39.1621V66.7174C39.1621 64.7637 41.1721 64.7441 41.6036 64.7441C43.3489 64.7441 43.8489 65.6233 44.2607 66.6783L48.1729 76.73C48.3004 77.0523 48.4475 77.2868 48.5749 77.2868C48.7024 77.2868 48.8593 77.0523 48.9867 76.73L52.8989 66.6783C53.5461 64.9786 54.4776 64.7441 55.5561 64.7441C56.9582 64.7441 57.9976 65.34 57.9976 66.7174V79.9731H55.1443L55.2325 68.251C55.2325 67.8407 55.056 67.7919 54.9678 67.7919C54.8207 67.7919 54.6737 68.124 54.605 68.2901L50.7418 78.3417Z" fill="#2A2A2A"/>
<path d="M62.8803 79.973C62.2234 79.973 61.6449 79.973 61.1448 79.5041C60.6252 79.0059 60.5859 78.3222 60.5859 77.7361V67.069C60.5859 66.4633 60.782 65.8577 61.1056 65.4963C61.6057 64.959 62.3312 64.9102 62.9195 64.9102H72.6167V67.1764H64.4491C64.1942 67.1764 63.8902 67.196 63.6745 67.3913C63.4392 67.6062 63.4392 67.9091 63.4392 68.124V71.1522H72.401V73.4087H63.4392V76.9448C63.4392 77.1793 63.5274 77.4137 63.6549 77.5211C63.8216 77.697 64.1746 77.7165 64.6256 77.7165H72.7049V79.973H62.8803Z" fill="#2A2A2A"/>
<path d="M89.1187 78.0194C89.1187 79.5433 88.099 80.1489 86.8635 80.1489C85.9615 80.1489 85.0986 79.934 84.4319 78.879L78.0586 68.8469C77.8429 68.5245 77.7547 68.4854 77.7155 68.4854C77.5978 68.4854 77.4115 68.6124 77.4115 68.9152V79.9731H74.6465V66.7857C74.6465 65.4963 75.5289 64.7441 76.9507 64.7441C78.294 64.7441 78.9411 65.2814 79.3529 65.9261L85.7654 76.0169C85.8732 76.1634 85.9223 76.3783 86.1086 76.3783C86.3537 76.3783 86.3537 76.1243 86.3537 76.0169V64.9102H89.1187V78.0194Z" fill="#2A2A2A"/>
<path d="M94.021 79.973C92.8934 79.973 92.4424 79.6507 92.3346 79.5627C92.0502 79.3478 91.707 78.8985 91.707 78.0584V67.3229C91.707 66.7662 91.7266 66.1214 92.2267 65.5549C92.4424 65.3204 92.9327 64.9102 93.8445 64.9102H99.757C101.855 64.9102 103.277 65.7112 104.189 66.6978C105.66 68.3096 105.718 70.4684 105.718 72.2755C105.718 73.9068 105.611 76.4857 104.385 78.1268C103.777 78.918 102.522 79.973 100.149 79.973H94.021ZM94.5603 76.6811C94.5603 76.9839 94.5309 77.2672 94.7466 77.5016C94.9427 77.7165 95.227 77.7165 95.482 77.7165H98.7666C100.345 77.7165 101.385 77.3746 102.022 76.3196C102.395 75.7335 102.787 74.6199 102.787 72.0508C102.787 70.7712 102.679 69.2571 101.728 68.2705C100.865 67.3718 99.502 67.1764 98.4823 67.1764H95.531C95.3545 67.1764 95.0505 67.1764 94.8544 67.3229C94.6878 67.4499 94.5603 67.7528 94.5603 68.0751V76.6811Z" fill="#2A2A2A"/>
<path d="M110.169 79.973C109.522 79.973 108.934 79.973 108.444 79.5041C107.924 79.0059 107.885 78.3222 107.885 77.7361V67.069C107.885 66.4633 108.071 65.8577 108.395 65.4963C108.895 64.959 109.63 64.9102 110.209 64.9102H119.906V67.1764H111.748C111.483 67.1764 111.189 67.196 110.973 67.3913C110.728 67.6062 110.728 67.9091 110.728 68.124V71.1522H119.69V73.4087H110.728V76.9448C110.728 77.1793 110.816 77.4137 110.944 77.5211C111.12 77.697 111.464 77.7165 111.924 77.7165H119.994V79.973H110.169Z" fill="#2A2A2A"/>
<path d="M123.877 79.973C123.387 79.973 122.818 79.8656 122.475 79.592C122.24 79.3967 121.936 78.9864 121.936 78.3417V64.9102H124.789V76.896C124.789 77.0718 124.769 77.3453 124.985 77.5505C125.073 77.6091 125.24 77.7165 125.701 77.7165H133.986V79.973H123.877Z" fill="#2A2A2A"/>
<path d="M137.144 79.973C136.497 79.973 135.909 79.973 135.418 79.5041C134.899 79.0059 134.859 78.3222 134.859 77.7361V67.069C134.859 66.4633 135.046 65.8577 135.369 65.4963C135.869 64.959 136.605 64.9102 137.183 64.9102H146.88V67.1764H138.723C138.458 67.1764 138.154 67.196 137.938 67.3913C137.703 67.6062 137.703 67.9091 137.703 68.124V71.1522H146.665V73.4087H137.703V76.9448C137.703 77.1793 137.791 77.4137 137.919 77.5211C138.095 77.697 138.438 77.7165 138.889 77.7165H146.969V79.973H137.144Z" fill="#2A2A2A"/>
<path d="M151.205 79.973C150.548 79.973 149.969 79.973 149.469 79.5041C148.959 79.0059 148.91 78.3222 148.91 77.7361V67.069C148.91 66.4633 149.106 65.8577 149.43 65.4963C149.93 64.959 150.665 64.9102 151.244 64.9102H160.941V67.1764H152.783C152.518 67.1764 152.214 67.196 151.999 67.3913C151.763 67.6062 151.763 67.9091 151.763 68.124V71.1522H160.725V73.4087H151.763V76.9448C151.763 77.1793 151.852 77.4137 151.979 77.5211C152.156 77.697 152.499 77.7165 152.95 77.7165H161.029V79.973H151.205Z" fill="#2A2A2A"/>
<path d="M162.971 79.973V66.8931C162.971 66.4243 163.079 65.887 163.53 65.4572C164.049 64.959 164.638 64.9102 165.157 64.9102H175.001V67.1764H166.53C166.344 67.1764 166.167 67.1569 166 67.3425C165.824 67.5183 165.824 67.7528 165.824 67.9481V71.2205H172.521V73.477H165.824V79.973H162.971Z" fill="#2A2A2A"/>
<path d="M38.7891 102.764V85.9228C38.7891 85.0925 38.9361 84.1352 39.7205 83.3831C40.5638 82.5723 41.6423 82.5137 42.3581 82.5137H57.4872V87.4272H46.6037C46.3095 87.4272 45.9369 87.4565 45.6722 87.7202C45.4369 87.9449 45.3486 88.3552 45.3486 88.785V90.2112H54.2026V94.773H45.3486V102.764H38.7891Z" fill="#2A2A2A"/>
<path d="M58.998 102.764V82.5137H65.5576V102.764H58.998Z" fill="#2A2A2A"/>
<path d="M73.9803 102.764V87.5444H66.7246V82.5137H87.7956V87.5444H80.5399V102.764H73.9803Z" fill="#2A2A2A"/>
<path d="M111.13 99.374C111.13 100.097 110.983 102.988 106.718 102.988C105.188 102.988 103.59 102.793 102.306 100.996L94.9616 90.6703C94.8146 90.4652 94.6185 90.1722 94.4126 90.1722C94.3243 90.1722 94.0008 90.1722 94.0008 90.7583V102.764H88.9512V85.8643C88.9512 83.2366 91.1573 82.2793 93.5105 82.2793C94.6185 82.2793 96.5599 82.3965 97.8051 84.1646L105.208 94.5777C105.355 94.7731 105.531 95.0661 105.767 95.0661C106.081 95.0661 106.081 94.7145 106.081 94.5777V82.5137H111.13V99.374Z" fill="#2A2A2A"/>
<path d="M117.436 102.764C116.592 102.764 115.749 102.705 114.965 102.07C114.033 101.289 114.033 100.478 114.033 99.5204V85.6396C114.033 84.8581 114.151 84.018 114.906 83.3244C115.661 82.6309 116.651 82.5137 117.377 82.5137H131.976V87.4272H121.936C121.554 87.4272 121.152 87.5151 120.916 87.7202C120.593 87.984 120.593 88.4431 120.593 88.7068V90.2307H131.682V94.6265H120.593V96.8341C120.593 97.2346 120.74 97.4691 120.887 97.5863C121.21 97.8696 121.73 97.8403 122.132 97.8403H132.065V102.764H117.436Z" fill="#2A2A2A"/>
<path d="M134.751 97.7231H146.017C146.968 97.7231 147.144 97.3812 147.144 97.0881C147.144 96.4532 146.507 96.248 145.84 96.082L137.967 93.8841C136.78 93.5617 136.055 92.8975 135.653 92.3504C134.692 91.0708 134.545 89.3418 134.545 87.8374C134.545 86.5676 134.633 84.9753 135.82 83.7836C136.457 83.1486 137.565 82.5137 139.31 82.5137H152.723V87.5444H142.389C141.634 87.5444 141.428 87.603 141.31 87.6616C141.134 87.7495 140.987 87.984 140.987 88.2086C140.987 88.8436 141.918 89.1073 142.703 89.3125L149.556 91.1294C150.449 91.3638 151.645 91.8229 152.37 92.5458C153.645 93.7962 153.763 95.7889 153.763 97.176C153.763 98.358 153.704 99.9796 152.782 101.201C151.615 102.734 150.076 102.764 148.684 102.764H134.751V97.7231Z" fill="#2A2A2A"/>
<path d="M155.733 97.7231H166.999C167.96 97.7231 168.127 97.3812 168.127 97.0881C168.127 96.4532 167.489 96.248 166.823 96.082L158.959 93.8841C157.773 93.5617 157.047 92.8975 156.635 92.3504C155.674 91.0708 155.527 89.3418 155.527 87.8374C155.527 86.5676 155.616 84.9753 156.812 83.7836C157.449 83.1486 158.547 82.5137 160.293 82.5137H173.706V87.5444H163.371C162.616 87.5444 162.41 87.603 162.293 87.6616C162.116 87.7495 161.979 87.984 161.979 88.2086C161.979 88.8436 162.901 89.1073 163.685 89.3125L170.539 91.1294C171.441 91.3638 172.627 91.8229 173.353 92.5458C174.637 93.7962 174.745 95.7889 174.745 97.176C174.745 98.358 174.686 99.9796 173.765 101.201C172.608 102.734 171.058 102.764 169.666 102.764H155.733V97.7231Z" fill="#2A2A2A"/>
<path d="M63.3414 55.6017C63.361 55.5138 63.3708 55.465 63.3708 55.3673C63.3708 55.2696 63.2825 55.1524 63.0766 55.1133L63.1061 54.9766H64.1062C64.2631 54.9766 64.3513 55.0449 64.3513 55.2208C64.3513 55.3087 64.3415 55.3868 64.3219 55.4552L64.1062 56.4418H64.8415C66.0083 56.4418 66.4692 57.0572 66.4692 57.9364C66.4692 58.2783 66.4005 58.7179 66.3025 59.1477C65.8417 61.1306 65.2828 61.8047 64.0866 61.8047C63.7434 61.8047 63.3806 61.7754 63.0668 61.2381H62.9982L62.6942 62.5764C62.6746 62.6643 62.6648 62.7131 62.6648 62.8108C62.6648 62.9085 62.7531 63.0257 62.959 63.0648L62.9296 63.2015H61.9295C61.7726 63.2015 61.6843 63.1332 61.6843 62.9573C61.6843 62.9085 61.7039 62.762 61.7236 62.6741L62.0569 61.2381H61.9687C61.5863 61.6972 61.449 61.8047 60.9391 61.8047C59.8508 61.8047 59.5566 61.1893 59.5566 60.4176C59.5566 59.9291 59.6743 59.3723 59.7822 58.8839C60.2038 56.9986 61.0078 56.4418 62.2138 56.4418H63.1551L63.3414 55.6017ZM62.2824 57.1842C61.4588 57.1842 60.998 57.6726 60.7332 58.8644C60.5862 59.5189 60.4979 59.978 60.4979 60.3003C60.4979 60.8474 60.7529 60.9744 61.3804 60.9744C61.9197 60.9744 62.2726 60.3296 62.4491 59.5384L62.9884 57.1842H62.2824ZM63.3708 59.6165C63.3022 59.9194 63.2629 60.1636 63.2629 60.3492C63.2629 60.8181 63.4786 60.9744 63.9101 60.9744C64.9004 60.9744 65.0769 60.4273 65.3906 59.0109C65.4789 58.6202 65.5279 58.3076 65.5279 58.0536C65.5279 57.3894 65.1945 57.1842 64.4984 57.1842H63.9297L63.3708 59.6165Z" fill="#2A2A2A"/>
<path d="M67.0176 60.7883C67.0176 60.6516 67.0372 60.5148 67.0666 60.3683L67.8216 57.0666C67.8412 56.9787 67.851 56.9298 67.851 56.8321C67.851 56.7345 67.7628 56.6172 67.5569 56.5782L67.5863 56.4414H68.5864C68.7433 56.4414 68.8315 56.5098 68.8315 56.6856C68.8315 56.7735 68.8217 56.8517 68.8021 56.9201L68.0471 60.2218C68.0275 60.3195 67.9981 60.4953 67.9981 60.5441C67.9981 60.886 68.2138 60.9739 68.7335 60.9739C69.6453 60.9739 69.8806 60.8079 70.0571 60.0264L70.7337 57.0666C70.7533 56.9787 70.7631 56.9298 70.7631 56.8321C70.7631 56.7345 70.6749 56.6172 70.4689 56.5782L70.4984 56.4414H71.4985C71.6554 56.4414 71.7436 56.5098 71.7436 56.6856C71.7436 56.7735 71.7338 56.8517 71.7142 56.9201L70.7631 61.0912C70.7435 61.1791 70.7337 61.2279 70.7337 61.3256C70.7337 61.4233 70.8219 61.5405 71.0278 61.5796L70.9984 61.7163H69.9983C69.8414 61.7163 69.7532 61.648 69.7532 61.4721C69.7532 61.4233 69.7728 61.2768 69.7924 61.1888H69.714C69.312 61.6675 69.1551 61.8043 68.3118 61.8043C67.3411 61.8043 67.0176 61.3549 67.0176 60.7883Z" fill="#2A2A2A"/>
<path d="M74.3326 56.9201C74.6268 56.5489 74.9405 56.3535 75.6465 56.3535C76.5976 56.3535 76.7643 56.6954 76.8623 56.9201H77.0682C77.3722 56.5489 77.6369 56.3535 78.4311 56.3535C79.2253 56.3535 79.5979 56.5977 79.5979 57.2424C79.5979 57.3987 79.5685 57.6136 79.5195 57.8188L78.7743 61.0912C78.7547 61.1791 78.7449 61.2279 78.7449 61.3256C78.7449 61.4233 78.8331 61.5405 79.039 61.5796L79.0194 61.7164H78.0095C77.8526 61.7164 77.7644 61.648 77.7644 61.4722C77.7644 61.4233 77.7938 61.2768 77.8036 61.1889L78.5488 57.9653C78.5684 57.8383 78.5978 57.7016 78.5978 57.6332C78.5978 57.2913 78.3723 57.1838 77.833 57.1838C77.1074 57.1838 76.8329 57.4769 76.6956 58.1216L76.0093 61.0912C75.9897 61.1791 75.9897 61.2279 75.9897 61.3256C75.9897 61.4233 76.0681 61.5405 76.2838 61.5796L76.2544 61.7164H75.2543C75.0974 61.7164 75.0092 61.648 75.0092 61.4722C75.0092 61.4233 75.0288 61.2768 75.0484 61.1889L75.7739 57.9653C75.8132 57.8383 75.8328 57.6918 75.8328 57.6332C75.8328 57.2913 75.6073 57.1838 75.068 57.1838C74.3424 57.1838 74.0777 57.4769 73.9208 58.1216L73.2541 61.0912C73.2344 61.1791 73.2246 61.2279 73.2246 61.3256C73.2246 61.4233 73.3129 61.5405 73.5188 61.5796L73.4894 61.7164H72.4795C72.3324 61.7164 72.2441 61.648 72.2441 61.4722C72.2441 61.4233 72.2638 61.2768 72.2834 61.1889L73.2246 57.0666C73.2344 56.9787 73.2541 56.9299 73.2541 56.8322C73.2541 56.7345 73.156 56.6173 72.9599 56.5782L72.9893 56.4414H73.9796C74.1365 56.4414 74.2346 56.5098 74.2346 56.6856C74.2346 56.7736 74.2149 56.8517 74.1953 56.9201H74.3326Z" fill="#2A2A2A"/>
<path d="M83.6957 58.5709L84.0389 57.0666C84.0585 56.9787 84.0683 56.9298 84.0683 56.8321C84.0683 56.7345 83.9801 56.6172 83.7741 56.5782L83.8036 56.4414H84.8037C84.9606 56.4414 85.0488 56.5098 85.0488 56.6856C85.0488 56.7735 85.039 56.8517 85.0194 56.9201L84.0683 61.0912C84.0487 61.1791 84.0389 61.2279 84.0389 61.3256C84.0389 61.4233 84.1271 61.5405 84.333 61.5796L84.3036 61.7163H83.3035C83.1466 61.7163 83.0584 61.648 83.0584 61.4721C83.0584 61.4233 83.078 61.2768 83.0976 61.1888L83.529 59.3133H81.6072L81.2052 61.0912C81.1856 61.1791 81.1758 61.2279 81.1758 61.3256C81.1758 61.4233 81.2641 61.5405 81.47 61.5796L81.4406 61.7163H80.4404C80.2836 61.7163 80.1953 61.648 80.1953 61.4721C80.1953 61.4233 80.2149 61.2768 80.2345 61.1888L81.1758 57.0666C81.1954 56.9787 81.2052 56.9298 81.2052 56.8321C81.2052 56.7345 81.117 56.6172 80.9111 56.5782L80.9405 56.4414H81.9406C82.0975 56.4414 82.1857 56.5098 82.1857 56.6856C82.1857 56.7735 82.1759 56.8517 82.1563 56.9201L81.7739 58.5709H83.6957Z" fill="#2A2A2A"/>
<path d="M89.1965 60.6321L89.0592 61.2084C88.9318 61.7554 88.6572 61.8043 87.7355 61.8043H87.3335C86.3628 61.8043 85.5 61.6773 85.5 60.4074C85.5 59.9287 85.5784 59.5771 85.7843 58.6882C86.1962 56.9396 86.9315 56.3535 88.216 56.3535C89.5495 56.3535 90.0005 56.8908 90.0005 57.6722C90.0005 57.9262 89.9123 59.1473 89.3534 59.1473H86.657C86.5491 59.6162 86.4903 59.9678 86.4903 60.2316C86.4903 60.847 86.7943 60.974 87.4414 60.974H88.1081C88.7651 60.974 88.8925 60.9056 89.0788 60.6321H89.1965ZM88.9808 58.4049C89.0494 58.1118 89.0984 57.8774 89.0984 57.7016C89.0984 57.301 88.8729 57.1545 88.1964 57.1545C87.2943 57.1545 87.0786 57.5257 86.8335 58.4049H88.9808Z" fill="#2A2A2A"/>
<path d="M94.0416 60.632L93.9043 61.2084C93.7769 61.7554 93.5023 61.8043 92.5807 61.8043H92.2571C90.8942 61.8043 90.4922 61.3061 90.4922 60.4464C90.4922 60.0166 90.5902 59.4891 90.7275 58.8835C91.1491 56.9982 91.8257 56.4414 93.0415 56.4414H94.5711L94.5024 56.7931C94.4338 57.1252 94.2573 57.1838 93.9436 57.1838H93.1199C92.2571 57.1838 91.9826 57.6722 91.7178 58.864C91.5707 59.5087 91.4923 59.958 91.4923 60.2706C91.4923 60.8958 91.8159 60.9739 92.5905 60.9739H92.9532C93.6102 60.9739 93.7376 60.9056 93.9239 60.632H94.0416Z" fill="#2A2A2A"/>
<path d="M100.492 61.1693C100.07 61.6773 99.9327 61.8043 99.0013 61.8043C98.0404 61.8043 97.7168 61.3549 97.7168 60.7883C97.7168 60.6516 97.7364 60.5148 97.7658 60.3683L98.511 57.0666C98.5404 56.9787 98.5502 56.9298 98.5502 56.8321C98.5502 56.7345 98.462 56.6172 98.2561 56.5782L98.2855 56.4414H99.2856C99.4425 56.4414 99.5307 56.5098 99.5307 56.6856C99.5307 56.7735 99.5209 56.8517 99.5013 56.9201L98.7463 60.2413C98.7169 60.3585 98.6875 60.4855 98.6875 60.5441C98.6875 60.8763 98.9032 60.9739 99.4327 60.9739C100.335 60.9739 100.619 60.632 100.825 59.7431L101.423 57.0666C101.453 56.9787 101.462 56.9298 101.462 56.8321C101.462 56.7345 101.374 56.6172 101.168 56.5782L101.198 56.4414H102.198C102.355 56.4414 102.443 56.5098 102.443 56.6856C102.443 56.7735 102.423 56.8517 102.413 56.9201L101.658 60.2315C101.609 60.4464 101.57 60.6614 101.57 60.7395C101.57 61.0032 101.698 61.1009 102.021 61.1009C102.1 61.1009 102.247 61.0912 102.335 61.0814L101.972 62.7616C101.894 63.0937 101.855 63.1523 101.619 63.1523H101.482C101.188 63.1523 101.051 63.1328 101.051 62.9569C101.051 62.8788 101.08 62.7713 101.129 62.6248L101.384 61.8043C101.011 61.8043 100.629 61.521 100.59 61.1693H100.492Z" fill="#2A2A2A"/>
<path d="M106.591 60.6321L106.444 61.2084C106.317 61.7554 106.042 61.8043 105.121 61.8043H104.728C103.748 61.8043 102.895 61.6773 102.895 60.4074C102.895 59.9287 102.963 59.5771 103.169 58.6882C103.591 56.9396 104.317 56.3535 105.601 56.3535C106.934 56.3535 107.385 56.8908 107.385 57.6722C107.385 57.9262 107.297 59.1473 106.738 59.1473H104.042C103.934 59.6162 103.885 59.9678 103.885 60.2316C103.885 60.847 104.189 60.974 104.836 60.974H105.493C106.15 60.974 106.278 60.9056 106.464 60.6321H106.591ZM106.366 58.4049C106.444 58.1118 106.483 57.8774 106.483 57.7016C106.483 57.301 106.258 57.1545 105.591 57.1545C104.679 57.1545 104.464 57.5257 104.228 58.4049H106.366Z" fill="#2A2A2A"/>
<path d="M111.395 58.5709L111.738 57.0666C111.758 56.9787 111.768 56.9298 111.768 56.8321C111.768 56.7345 111.679 56.6172 111.473 56.5782L111.503 56.4414H112.503C112.66 56.4414 112.748 56.5098 112.748 56.6856C112.748 56.7735 112.738 56.8517 112.719 56.9201L111.768 61.0912C111.748 61.1791 111.738 61.2279 111.738 61.3256C111.738 61.4233 111.826 61.5405 112.032 61.5796L112.003 61.7163H111.003C110.846 61.7163 110.758 61.648 110.758 61.4721C110.758 61.4233 110.777 61.2768 110.797 61.1888L111.228 59.3133H109.306L108.904 61.0912C108.885 61.1791 108.875 61.2279 108.875 61.3256C108.875 61.4233 108.963 61.5405 109.169 61.5796L109.14 61.7163H108.14C107.983 61.7163 107.895 61.648 107.895 61.4721C107.895 61.4233 107.914 61.2768 107.944 61.1888L108.875 57.0666C108.895 56.9787 108.904 56.9298 108.904 56.8321C108.904 56.7345 108.816 56.6172 108.61 56.5782L108.64 56.4414H109.64C109.807 56.4414 109.885 56.5098 109.885 56.6856C109.885 56.7735 109.875 56.8517 109.856 56.9201L109.473 58.5709H111.395Z" fill="#2A2A2A"/>
<path d="M115.337 56.9201C115.64 56.5489 115.954 56.3535 116.66 56.3535C117.611 56.3535 117.778 56.6954 117.876 56.9201H118.072C118.376 56.5489 118.651 56.3535 119.445 56.3535C120.239 56.3535 120.612 56.5977 120.612 57.2424C120.612 57.3987 120.582 57.6136 120.533 57.8188L119.788 61.0912C119.768 61.1791 119.759 61.2279 119.759 61.3256C119.759 61.4233 119.847 61.5405 120.053 61.5796L120.023 61.7164H119.023C118.866 61.7164 118.778 61.648 118.778 61.4722C118.778 61.4233 118.798 61.2768 118.817 61.1889L119.553 57.9653C119.582 57.8383 119.602 57.7016 119.602 57.6332C119.602 57.2913 119.386 57.1838 118.847 57.1838C118.111 57.1838 117.847 57.4769 117.7 58.1216L117.023 61.0912C117.003 61.1791 116.994 61.2279 116.994 61.3256C116.994 61.4233 117.082 61.5405 117.288 61.5796L117.258 61.7164H116.258C116.101 61.7164 116.013 61.648 116.013 61.4722C116.013 61.4233 116.033 61.2768 116.052 61.1889L116.788 57.9653C116.817 57.8383 116.837 57.6918 116.837 57.6332C116.837 57.2913 116.621 57.1838 116.082 57.1838C115.346 57.1838 115.082 57.4769 114.935 58.1216L114.258 61.0912C114.238 61.1791 114.229 61.2279 114.229 61.3256C114.229 61.4233 114.317 61.5405 114.523 61.5796L114.493 61.7164H113.493C113.336 61.7164 113.248 61.648 113.248 61.4722C113.248 61.4233 113.268 61.2768 113.287 61.1889L114.229 57.0666C114.248 56.9787 114.258 56.9299 114.258 56.8322C114.258 56.7345 114.17 56.6173 113.964 56.5782L113.993 56.4414H114.993C115.15 56.4414 115.238 56.5098 115.238 56.6856C115.238 56.7736 115.229 56.8517 115.209 56.9201H115.337Z" fill="#2A2A2A"/>
<path d="M123.211 56.9494C123.505 56.5293 123.701 56.3535 124.505 56.3535C125.574 56.3535 125.937 56.9103 125.937 57.7309C125.937 58.0337 125.888 58.3658 125.603 59.6357C125.289 61.0228 124.75 61.7164 123.554 61.7164H122.034L121.838 62.5564C121.818 62.6444 121.809 62.6932 121.809 62.7909C121.809 62.8886 121.897 63.0058 122.103 63.0449L122.073 63.1816H121.073C120.916 63.1816 120.828 63.1132 120.828 62.9374C120.828 62.8886 120.848 62.742 120.867 62.6541L122.142 57.0666C122.162 56.9787 122.171 56.9299 122.171 56.8322C122.171 56.7345 122.083 56.6173 121.877 56.5782L121.907 56.4414H122.907C123.064 56.4414 123.152 56.5098 123.152 56.6856C123.152 56.7736 123.142 56.8517 123.122 56.9201L123.211 56.9494ZM123.279 60.9154C124.132 60.9154 124.417 60.5051 124.681 59.3231C124.897 58.3658 124.946 58.0825 124.946 57.8676C124.946 57.3694 124.711 57.1838 124.162 57.1838C123.279 57.1838 122.985 57.5355 122.77 58.4733L122.211 60.9154H123.279Z" fill="#2A2A2A"/>
<path d="M134.967 61.7163H133.977C133.643 61.7163 133.584 61.5796 133.584 61.2865V58.1704L132.065 61.7163H131.104L130.76 58.1704L129.741 61.1888C129.721 61.2475 129.711 61.2865 129.711 61.3451C129.711 61.4526 129.77 61.521 129.927 61.56L129.888 61.7163H128.868C128.711 61.7163 128.643 61.6382 128.643 61.5112C128.643 61.4819 128.662 61.3549 128.701 61.2475L130.123 57.0764C130.153 56.9982 130.162 56.8908 130.162 56.8712C130.162 56.7442 130.074 56.6368 129.927 56.5977L129.966 56.4414H131.31C131.663 56.4414 131.761 56.5684 131.8 56.9884L132.055 59.3524L133.025 57.0959C133.084 56.9591 133.114 56.8517 133.114 56.7833C133.114 56.6856 133.035 56.627 132.898 56.5977L132.918 56.4414H134.153C134.614 56.4414 134.741 56.6758 134.741 57.0861V61.1888C134.741 61.4428 134.781 61.521 135.006 61.56L134.967 61.7163Z" fill="#2A2A2A"/>
<path d="M140.006 58.7956C139.888 59.1277 139.732 59.2938 139.261 59.2938H136.927C136.849 59.7236 136.81 60.0264 136.81 60.1729C136.81 60.5637 137.016 60.7981 137.623 60.7981H138.526C138.996 60.7981 139.182 60.7786 139.388 60.5441H139.526L139.398 61.0716C139.271 61.6089 138.986 61.7847 138.094 61.7847H137.32C136.3 61.7847 135.574 61.4428 135.574 60.2218C135.574 59.8213 135.613 59.4598 135.731 58.9617C136.143 57.1936 136.849 56.4414 138.418 56.4414C139.594 56.4414 140.192 56.8712 140.192 57.8187C140.192 57.975 140.134 58.4439 140.006 58.7956ZM138.32 57.3792C137.545 57.3792 137.349 57.7797 137.182 58.356H138.937C138.986 58.1606 139.006 58.0434 139.006 57.8676C139.006 57.5062 138.81 57.3792 138.32 57.3792Z" fill="#2A2A2A"/>
<path d="M145.606 57.0666L144.645 61.14C144.626 61.2279 144.616 61.3061 144.616 61.3354C144.616 61.4526 144.694 61.521 144.861 61.56L144.832 61.7163H143.881C143.557 61.7163 143.43 61.5796 143.43 61.3451C143.43 61.2865 143.449 61.14 143.479 61.013L143.861 59.411H142.175L141.763 61.14C141.743 61.2279 141.733 61.3061 141.733 61.3256C141.733 61.4624 141.812 61.521 141.978 61.56L141.949 61.7163H140.998C140.665 61.7163 140.547 61.5796 140.547 61.3158C140.547 61.2865 140.566 61.1302 140.596 61.013L141.547 56.9787C141.557 56.9298 141.567 56.8614 141.567 56.8224C141.567 56.6661 141.478 56.6172 141.351 56.5879L141.39 56.4414H142.351C142.665 56.4414 142.763 56.5782 142.763 56.8028C142.763 56.8517 142.743 56.9982 142.724 57.0666L142.39 58.4732H144.077L144.43 56.9787C144.439 56.9298 144.449 56.8908 144.449 56.8126C144.449 56.6856 144.39 56.627 144.234 56.5879L144.273 56.4414H145.234C145.538 56.4414 145.645 56.5684 145.645 56.7833C145.645 56.8419 145.626 56.9982 145.606 57.0666Z" fill="#2A2A2A"/>
<path d="M150.988 56.9884L149.909 61.521C149.684 62.488 149.046 63.1523 147.821 63.1523H146.664C146.125 63.1523 145.762 63.0058 145.762 62.576C145.762 62.488 145.781 62.3513 145.801 62.2731L145.909 61.8238H146.026C146.164 62.1071 146.37 62.1657 146.821 62.1657H147.527C148.38 62.1657 148.693 61.7554 148.801 61.2084L148.88 60.8079H148.791L148.389 61.2963C148.144 61.4526 147.86 61.521 147.34 61.521C146.497 61.521 146.075 61.1595 146.075 60.2804C146.075 59.9483 146.125 59.4989 146.252 58.9714C146.683 57.135 147.723 56.4414 149.066 56.4414H150.625C150.9 56.4414 151.017 56.5782 151.017 56.7931C151.017 56.8126 151.007 56.9005 150.988 56.9884ZM149.066 57.3792C148.311 57.3792 147.801 57.8871 147.546 58.9714C147.438 59.4305 147.389 59.6943 147.389 59.9971C147.389 60.4171 147.595 60.5344 148.027 60.5344C148.703 60.5344 148.997 60.2706 149.184 59.4891L149.694 57.3792H149.066Z" fill="#2A2A2A"/>
<path d="M155.969 58.7956C155.842 59.1277 155.694 59.2938 155.224 59.2938H152.89C152.812 59.7236 152.773 60.0264 152.773 60.1729C152.773 60.5637 152.978 60.7981 153.586 60.7981H154.479C154.959 60.7981 155.145 60.7786 155.351 60.5441H155.479L155.351 61.0716C155.234 61.6089 154.949 61.7847 154.057 61.7847H153.282C152.263 61.7847 151.527 61.4428 151.527 60.2218C151.527 59.8213 151.576 59.4598 151.694 58.9617C152.106 57.1936 152.812 56.4414 154.381 56.4414C155.557 56.4414 156.155 56.8712 156.155 57.8187C156.155 57.975 156.096 58.4439 155.969 58.7956ZM154.273 57.3792C153.508 57.3792 153.312 57.7797 153.145 58.356H154.9C154.949 58.1606 154.969 58.0434 154.969 57.8676C154.969 57.5062 154.773 57.3792 154.273 57.3792Z" fill="#2A2A2A"/>
<path d="M160.479 61.7163H159.479C159.175 61.7163 159.086 61.521 159.057 61.2377L158.871 57.8578L157.263 61.1595C157.214 61.2572 157.194 61.3158 157.194 61.3842C157.194 61.4721 157.243 61.521 157.39 61.56L157.351 61.7163H156.37C156.155 61.7163 156.076 61.6284 156.076 61.5112C156.076 61.4233 156.096 61.3744 156.135 61.2865L158.223 57.0764C158.282 56.9689 158.302 56.9005 158.302 56.8028C158.302 56.6856 158.243 56.6172 158.106 56.5977L158.145 56.4414H159.537C159.831 56.4414 159.93 56.5977 159.949 56.8908L160.204 61.2084C160.224 61.4624 160.292 61.521 160.518 61.56L160.479 61.7163Z" fill="#2A2A2A"/>
<path d="M165.393 58.7956C165.275 59.1277 165.118 59.2938 164.648 59.2938H162.314C162.236 59.7236 162.196 60.0264 162.196 60.1729C162.196 60.5637 162.412 60.7981 163.01 60.7981H163.912C164.383 60.7981 164.569 60.7786 164.775 60.5441H164.912L164.785 61.0716C164.657 61.6089 164.383 61.7847 163.481 61.7847H162.706C161.687 61.7847 160.951 61.4428 160.951 60.2218C160.951 59.8213 161 59.4598 161.118 58.9617C161.53 57.1936 162.236 56.4414 163.804 56.4414C164.981 56.4414 165.579 56.8712 165.579 57.8187C165.579 57.975 165.52 58.4439 165.393 58.7956ZM163.697 57.3792C162.932 57.3792 162.736 57.7797 162.569 58.356H164.324C164.383 58.1606 164.393 58.0434 164.393 57.8676C164.393 57.5062 164.197 57.3792 163.697 57.3792Z" fill="#2A2A2A"/>
<path d="M170.403 58.7956C170.285 59.1277 170.128 59.2938 169.657 59.2938H167.324C167.245 59.7236 167.206 60.0264 167.206 60.1729C167.206 60.5637 167.412 60.7981 168.02 60.7981H168.922C169.393 60.7981 169.579 60.7786 169.785 60.5441H169.922L169.795 61.0716C169.667 61.6089 169.383 61.7847 168.491 61.7847H167.716C166.696 61.7847 165.961 61.4428 165.961 60.2218C165.961 59.8213 166.01 59.4598 166.128 58.9617C166.539 57.1936 167.245 56.4414 168.814 56.4414C169.991 56.4414 170.589 56.8712 170.589 57.8187C170.589 57.975 170.53 58.4439 170.403 58.7956ZM168.706 57.3792C167.942 57.3792 167.745 57.7797 167.579 58.356H169.334C169.383 58.1606 169.402 58.0434 169.402 57.8676C169.402 57.5062 169.206 57.3792 168.706 57.3792Z" fill="#2A2A2A"/>
<path d="M174.864 55.5138C174.805 55.7483 174.668 55.8362 174.403 55.8362H173.697C173.471 55.8362 173.334 55.9241 173.275 56.1683L173.207 56.4418H174.53L174.383 57.0572C174.324 57.2917 174.217 57.3796 173.952 57.3796H173.285C173.079 57.3796 172.961 57.4968 172.912 57.7019L172.099 61.1404C172.079 61.2283 172.069 61.3065 172.069 61.326C172.069 61.4628 172.148 61.5214 172.314 61.5605L172.285 61.7168H171.334C171.01 61.7168 170.883 61.58 170.883 61.3456C170.883 61.2772 170.902 61.1404 170.932 61.0134L171.795 57.3796H171.353L171.53 56.6372C171.893 56.5493 172.01 56.4418 172.118 56.0022C172.314 55.1915 172.716 54.957 173.56 54.957H175.001L174.864 55.5138Z" fill="#2A2A2A"/>
<path fill-rule="evenodd" clip-rule="evenodd" d="M29.0336 29.3635C27.8668 30.1352 26.7098 30.9167 25.543 31.6884C28.8473 36.0451 25.0919 35.4883 27.2 38.2723C29.514 36.7094 32.3967 35.2832 32.7399 33.2904C31.7005 31.0144 30.4259 29.9203 29.0336 29.3635Z" fill="#2A2A2A"/>
<path fill-rule="evenodd" clip-rule="evenodd" d="M33.5635 62.498C37.76 61.2477 42.8979 60.6616 45.0354 61.2672C44.9275 59.4698 44.8196 57.692 44.7118 55.9044C42.486 55.0154 34.642 56.2463 32.7202 56.6468C32.1123 54.2242 31.9162 54.0581 31.5534 52.7882C31.3083 48.9004 41.4369 47.0737 47.1336 48.3241C53.5069 50.2778 46.6924 61.7654 51.3204 62.9181C56.1935 45.0712 57.8211 40.6461 53.8403 46.7905C46.5453 41.6523 37.1325 43.2836 29.1022 46.5755C26.3764 40.2945 21.8759 35.6936 19.6011 31.9816C15.4634 24.6748 16.64 21.2266 16.64 21.0214C16.5322 20.6014 13.2671 27.029 17.9147 34.873C20.6993 39.5911 23.0525 41.9746 25.6802 48.1483C15.1987 53.599 -6.4214 68.2321 1.84423 93.3075C-1.7346 70.3225 18.5716 56.9593 27.151 52.3389C27.5726 54.1167 28.6414 56.002 28.9551 57.4673C26.1509 59.3624 17.5911 61.6482 18.4245 67.7339C19.1991 71.1137 24.0918 65.116 30.2102 63.8558C33.6615 82.9237 18.15 111.633 3.45226 97.7815C18.5128 115.081 37.4463 85.7566 33.5635 62.498Z" fill="#2A2A2A"/>
</g>
<defs>
<clipPath id="clip0_27_269">
<rect width="175" height="124" fill="white"/>
</clipPath>
</defs>
</svg>
