<svg width="216" height="124" viewBox="0 0 216 124" fill="none" xmlns="http://www.w3.org/2000/svg">
<path fill-rule="evenodd" clip-rule="evenodd" d="M14.8732 72.3738C11.7549 76.4242 8.84833 81.7797 7.04338 88.7578C7.58578 89.7451 8.14078 90.6984 8.70013 91.5924C10.8186 92.1771 12.8607 92.6008 14.8182 92.8932C18.5932 93.4524 22.0591 93.5118 25.1901 93.249C28.5373 91.3042 31.6599 88.957 32.9437 86.5887C28.7661 86.8978 23.8131 86.5971 18.3052 85.0548C21.4575 79.2757 25.2283 75.0981 28.8805 72.0898C28.3086 70.8909 27.961 70.1917 27.961 70.1917C27.961 70.1917 27.2196 68.8147 26.0968 67.192C19.9491 66.1116 12.2167 66.2049 3.14128 69.2088C2.01853 70.1451 1.26428 71.0815 1.09057 71.9586L1.10752 71.9374C0.912621 72.933 1.26853 74.7973 1.98455 77.0895C6.56893 74.5981 10.9203 73.1491 14.8732 72.3738Z" fill="#2A2A2A"/>
<path fill-rule="evenodd" clip-rule="evenodd" d="M14.9911 98.3476C13.7624 98.3476 12.3557 97.3647 10.6906 95.3479C5.80116 89.4247 -0.16436 75.5913 0.56014 71.8543C1.46685 67.1725 15.8342 61.7916 19.7365 61.5078C23.6344 61.2196 27.973 69.0495 28.4432 69.9307C28.4899 70.0113 32.2735 77.4088 33.9556 83.3025C35.9087 90.1323 19.0373 97.1487 15.6352 98.2461C15.4318 98.3139 15.2156 98.3476 14.9911 98.3476ZM19.9483 62.5966C19.9016 62.5966 19.8593 62.5966 19.8169 62.6008C15.8851 62.8848 2.36511 68.2911 1.63633 72.0619C1.03893 75.1675 6.66126 88.7383 11.5381 94.6489C12.9193 96.3267 14.1479 97.2504 14.9911 97.2504C15.1013 97.2504 15.2029 97.2376 15.3004 97.2037C20.9015 95.3988 34.3622 88.696 32.909 83.6032C31.2524 77.8156 27.5155 70.5154 27.4772 70.4391C26.3078 68.2656 22.6684 62.5966 19.9483 62.5966Z" fill="#2A2A2A"/>
<path fill-rule="evenodd" clip-rule="evenodd" d="M47.1319 81.9161C46.1446 81.9161 43.9414 81.9416 43.9414 79.5817C43.9414 77.7851 45.0091 76.5862 45.666 75.959L52.7077 69.2435C52.7839 69.163 52.9873 69.0148 52.9873 68.858C52.9873 68.7352 52.7839 68.5826 52.5339 68.5826H44.7295V64.1719H58.491C59.7112 64.1719 60.9484 64.5236 60.9484 66.5362C60.9484 68.252 60.2409 68.9639 59.4528 69.7223L51.928 76.8997C51.801 77.0225 51.6696 77.0479 51.6696 77.2301C51.6696 77.3276 51.6951 77.5055 51.9705 77.5055H60.7705V81.9161H47.1319Z" fill="#2A2A2A"/>
<path fill-rule="evenodd" clip-rule="evenodd" d="M78.6639 65.7951C80.5874 67.5662 80.6637 70.6592 80.6637 73.0445C80.6637 75.3705 80.5874 78.4932 78.6639 80.2854C76.7868 82.0395 73.5372 82.1157 70.9061 82.1157C68.2791 82.1157 65.0295 82.0395 63.1526 80.2854C61.2248 78.4889 61.1484 75.3705 61.1484 73.0445C61.1484 70.6592 61.2248 67.5662 63.1526 65.7951C65.0465 64.0368 68.2199 63.9648 70.9061 63.9648C73.5965 63.9648 76.7573 64.0368 78.6639 65.7951ZM67.686 76.4043C68.4486 77.5737 69.4613 77.7009 70.9061 77.7009C72.3975 77.7009 73.3422 77.5737 74.1261 76.4043C74.7828 75.4469 74.7828 74.4554 74.7828 73.0403C74.7828 71.4896 74.8083 70.6548 74.1261 69.6635C73.3422 68.4983 72.3975 68.3712 70.9061 68.3712C69.4401 68.3712 68.4486 68.4983 67.686 69.6635C67.0589 70.5998 67.0335 71.5701 67.0335 73.0403C67.0335 74.4342 67.1097 75.5189 67.686 76.4043Z" fill="#2A2A2A"/>
<path fill-rule="evenodd" clip-rule="evenodd" d="M82.0859 67.57C82.0859 66.7565 82.1368 65.7397 82.7639 65.032C83.4248 64.2991 84.4628 64.1719 85.1492 64.1719H94.801C95.911 64.1719 97.8727 64.1719 99.0379 65.8964C99.7963 67.0361 99.9488 68.6122 99.9488 69.9511C99.9488 70.7645 99.8938 72.8704 99.2878 74.3108C98.6269 75.8828 97.3643 76.5226 95.9915 76.5226H95.2373V76.6201L100.309 81.9161H93.4154L89.9878 77.2979C89.4031 76.5184 88.7719 75.7472 88.7719 74.8913V74.51C88.7719 73.3195 89.8691 72.506 91.3351 72.506H92.2418C92.7545 72.506 93.4367 72.4552 93.8392 71.9722C94.1146 71.6204 94.2247 70.9595 94.2247 70.5019C94.2247 69.5401 93.9154 69.1334 93.7841 69.0062C93.3562 68.5529 92.7206 68.5783 92.1952 68.5783H89.026C88.6913 68.5783 88.3904 68.6038 88.1405 68.8537C87.7804 69.1843 87.8057 69.5401 87.8057 69.9722V81.9161H82.0859V67.57Z" fill="#2A2A2A"/>
<path fill-rule="evenodd" clip-rule="evenodd" d="M118.703 79.2554C118.703 80.4163 118.152 81.0476 117.843 81.3061C117.385 81.6874 116.678 81.9203 115.945 81.9203H107.556C106.111 81.9203 104.234 81.4331 103.094 80.4205C101.145 78.7003 100.963 75.4802 100.963 73.15C100.963 70.3324 101.192 67.0573 103.497 65.3879C105.124 64.1974 107.479 64.1719 107.962 64.1719H118.3V68.375H110.547C109.102 68.375 108.094 68.8876 107.479 69.8452C106.869 70.8367 106.848 72.0568 106.848 73.0441C106.848 74.0059 106.869 75.2473 107.5 76.2811C108.14 77.2682 109.03 77.5013 109.987 77.5013H111.708C112.013 77.5013 112.394 77.4758 112.669 77.2259C112.949 76.9462 112.979 76.5395 112.979 76.1836V72.5356H118.703V79.2554Z" fill="#2A2A2A"/>
<path fill-rule="evenodd" clip-rule="evenodd" d="M123.091 81.9145C122.349 81.9145 121.616 81.8636 120.934 81.3002C120.125 80.618 120.125 79.9105 120.125 79.0757V66.9031C120.125 66.221 120.231 65.4796 120.883 64.8779C121.54 64.2677 122.409 64.166 123.044 64.166H135.789V68.4707H127.027C126.688 68.4707 126.332 68.5513 126.137 68.7292C125.858 68.9581 125.858 69.3563 125.858 69.5936V70.9367H135.535V74.788H125.858V76.7116C125.858 77.0633 125.985 77.2666 126.107 77.3726C126.387 77.6225 126.845 77.5972 127.196 77.5972H135.865V81.9145H123.091Z" fill="#2A2A2A"/>
<path fill-rule="evenodd" clip-rule="evenodd" d="M145.751 64.7109L145.726 66.6768H139.532V71.5197H145.535L145.509 73.4856H139.532V81.951H137.375V64.7109H145.751Z" fill="#2A2A2A"/>
<path d="M150.154 64.7109H148.002V81.9467H150.154V64.7109Z" fill="#2A2A2A"/>
<path fill-rule="evenodd" clip-rule="evenodd" d="M162.533 66.6768H158.279V81.951H156.108V66.6768H151.863V64.7109H162.533V66.6768Z" fill="#2A2A2A"/>
<path fill-rule="evenodd" clip-rule="evenodd" d="M178.396 82.3219L166.172 69.5137V81.9533H164.131V64.3574L176.338 77.1614V64.7134H178.396V82.3219Z" fill="#2A2A2A"/>
<path fill-rule="evenodd" clip-rule="evenodd" d="M190.609 66.6768H183.466V71.5028H190.363V73.4687H183.466V79.985H190.579V81.951H181.318V64.7109H190.609V66.6768Z" fill="#2A2A2A"/>
<path fill-rule="evenodd" clip-rule="evenodd" d="M202.701 76.9874C202.701 78.5 202.172 79.7669 201.117 80.7879C200.063 81.809 198.762 82.3175 197.193 82.3175C195.897 82.3175 194.762 81.9192 193.805 81.11C192.779 80.2413 192.135 79.0338 191.859 77.4915L193.907 77.051C194.007 78.0678 194.372 78.8601 194.999 79.4363C195.621 80.0126 196.415 80.3007 197.367 80.3007C198.249 80.3007 198.999 79.9745 199.617 79.3262C200.235 78.6737 200.55 77.8814 200.55 76.962C200.55 76.1612 200.265 75.4748 199.698 74.924C199.176 74.4156 198.342 73.9452 197.19 73.5047C195.6 72.8903 194.465 72.2378 193.761 71.526C193.02 70.7718 192.644 69.8525 192.644 68.7678C192.644 67.5009 193.131 66.4544 194.123 65.6028C195.096 64.7555 196.317 64.3359 197.745 64.3359C199.668 64.3359 201.134 65.2046 202.155 66.9459L200.435 67.9712C199.778 66.8909 198.876 66.3485 197.727 66.3485C196.923 66.3485 196.224 66.5772 195.66 67.0434C195.089 67.5137 194.801 68.0898 194.801 68.7678C194.801 69.3609 195.05 69.8651 195.521 70.2804C195.99 70.6956 196.805 71.1192 197.948 71.5344C199.643 72.1616 200.864 72.8945 201.596 73.7334C202.334 74.5851 202.701 75.6612 202.701 76.9874Z" fill="#2A2A2A"/>
<path fill-rule="evenodd" clip-rule="evenodd" d="M215 76.9874C215 78.5 214.473 79.7669 213.419 80.7879C212.364 81.809 211.055 82.3175 209.499 82.3175C208.191 82.3175 207.068 81.9192 206.106 81.11C205.08 80.2413 204.446 79.0338 204.156 77.4915L206.204 77.051C206.306 78.0678 206.673 78.8601 207.3 79.4363C207.927 80.0126 208.716 80.3007 209.673 80.3007C210.551 80.3007 211.292 79.9745 211.911 79.3262C212.534 78.6737 212.852 77.8814 212.852 76.962C212.852 76.1612 212.571 75.4748 212 74.924C211.482 74.4156 210.644 73.9452 209.495 73.5047C207.902 72.8903 206.763 72.2378 206.064 71.526C205.317 70.7718 204.945 69.8525 204.945 68.7678C204.945 67.5009 205.433 66.4544 206.42 65.6028C207.398 64.7555 208.605 64.3359 210.051 64.3359C211.965 64.3359 213.432 65.2046 214.452 66.9459L212.736 67.9712C212.084 66.8909 211.182 66.3485 210.029 66.3485C209.207 66.3485 208.521 66.5772 207.953 67.0434C207.381 67.5137 207.102 68.0898 207.102 68.7678C207.102 69.3609 207.33 69.8651 207.809 70.2804C208.292 70.6956 209.097 71.1192 210.245 71.5344C211.944 72.1616 213.161 72.8945 213.893 73.7334C214.631 74.5851 215 75.6612 215 76.9874Z" fill="#2A2A2A"/>
<path fill-rule="evenodd" clip-rule="evenodd" d="M50.7355 95.76H49.4431V94.6796C48.8203 95.5566 48.045 95.9973 47.0959 95.9973C46.1935 95.9973 45.4351 95.6541 44.8419 94.9719C44.236 94.2941 43.9395 93.4424 43.9395 92.4255C43.9395 91.4045 44.2402 90.5613 44.8419 89.8876C45.4477 89.214 46.2105 88.875 47.1256 88.875C48.1425 88.875 48.9136 89.3283 49.4431 90.2393V89.0868H50.7355V95.76ZM49.5279 92.4255C49.5279 91.7052 49.3246 91.1205 48.9178 90.68C48.5068 90.2393 47.9815 90.0232 47.346 90.0232C46.74 90.0232 46.24 90.2478 45.8334 90.7096C45.4266 91.1671 45.2275 91.7391 45.2275 92.4171C45.2275 93.1205 45.4266 93.7094 45.8376 94.1669C46.2444 94.6287 46.7613 94.8533 47.3883 94.8533C48.0111 94.8533 48.528 94.6287 48.9306 94.1712C49.3288 93.7177 49.5279 93.1374 49.5279 92.4255Z" fill="#2A2A2A"/>
<path d="M53.7666 84.2148H52.4785V95.7603H53.7666V84.2148Z" fill="#2A2A2A"/>
<path d="M56.8581 84.2148H55.5742V95.7603H56.8581V84.2148Z" fill="#2A2A2A"/>
<path fill-rule="evenodd" clip-rule="evenodd" d="M69.1547 95.76H67.8582V94.6796C67.2566 95.5566 66.4685 95.9973 65.5152 95.9973C64.6128 95.9973 63.8628 95.6541 63.2654 94.9719C62.6637 94.2941 62.3672 93.4424 62.3672 92.4255C62.3672 91.4045 62.6681 90.5613 63.2697 89.8876C63.8756 89.214 64.634 88.875 65.5491 88.875C66.5576 88.875 67.3371 89.3283 67.8624 90.2393V89.0868H69.159V95.76H69.1547ZM67.943 92.4255C67.943 91.7052 67.7396 91.1205 67.3329 90.68C66.9176 90.2393 66.405 90.0232 65.7653 90.0232C65.1636 90.0232 64.6593 90.2478 64.2483 90.7096C63.8501 91.1671 63.6425 91.7391 63.6425 92.4171C63.6425 93.1205 63.8501 93.7094 64.2527 94.1669C64.6721 94.6287 65.1806 94.8533 65.8118 94.8533C66.4304 94.8533 66.9473 94.6287 67.3541 94.1712C67.7438 93.7177 67.943 93.1374 67.943 92.4255Z" fill="#2A2A2A"/>
<path fill-rule="evenodd" clip-rule="evenodd" d="M77.6509 92.4158C77.6509 93.4242 77.3416 94.2716 76.7441 94.9622C76.1425 95.6486 75.4052 95.9918 74.524 95.9918C73.5538 95.9918 72.7529 95.5512 72.1217 94.6742V95.7545H70.8379V84.209H72.1217V90.2169C72.7529 89.3229 73.541 88.8738 74.4943 88.8738C75.3968 88.8738 76.1594 89.2127 76.7527 89.8865C77.35 90.5643 77.6509 91.4033 77.6509 92.4158ZM76.367 92.3988C76.367 91.7082 76.1636 91.1363 75.757 90.6872C75.3544 90.2423 74.8333 90.0177 74.2019 90.0177C73.5961 90.0177 73.0834 90.2339 72.6682 90.6788C72.2657 91.1321 72.0581 91.6913 72.0581 92.3862C72.0581 93.1065 72.2572 93.6996 72.6556 94.1573C73.0495 94.6275 73.5707 94.8521 74.2189 94.8521C74.8544 94.8521 75.3671 94.6275 75.7696 94.1573C76.168 93.7038 76.367 93.1149 76.367 92.3988Z" fill="#2A2A2A"/>
<path fill-rule="evenodd" clip-rule="evenodd" d="M85.8593 92.4255C85.8593 93.4254 85.5161 94.2685 84.8085 94.9549C84.1136 95.6541 83.262 95.9929 82.2621 95.9929C81.2622 95.9929 80.4149 95.6499 79.7199 94.9549C79.0335 94.2685 78.6777 93.4212 78.6777 92.4255C78.6777 91.4384 79.0335 90.5994 79.7199 89.913C80.4149 89.2266 81.2622 88.875 82.2621 88.875C83.2704 88.875 84.1179 89.2224 84.8169 89.913C85.5203 90.5994 85.8593 91.4384 85.8593 92.4255ZM84.567 92.4255C84.567 91.7858 84.3381 91.2435 83.889 90.7858C83.4399 90.3282 82.9019 90.0994 82.2621 90.0994C81.6266 90.0994 81.0842 90.3282 80.6394 90.7858C80.1945 91.2435 79.9656 91.7858 79.9656 92.4255C79.9656 93.0738 80.1945 93.633 80.6394 94.0865C81.0842 94.5398 81.6266 94.7685 82.2621 94.7685C82.9019 94.7685 83.4399 94.5356 83.889 94.0865C84.3381 93.6288 84.567 93.0738 84.567 92.4255Z" fill="#2A2A2A"/>
<path fill-rule="evenodd" clip-rule="evenodd" d="M92.8048 92.9951C92.8048 93.9228 92.5718 94.6475 92.0972 95.1644C91.5973 95.7194 90.8728 95.9906 89.9237 95.9906C89.0297 95.9906 88.3264 95.7066 87.8095 95.1516C87.3053 94.5923 87.0469 93.8297 87.0469 92.8551V89.0801H88.3306V92.7831C88.3306 94.1178 88.8644 94.7829 89.9195 94.7829C90.9703 94.7829 91.5083 94.1178 91.5083 92.7959V89.0801H92.809V92.9951H92.8048Z" fill="#2A2A2A"/>
<path fill-rule="evenodd" clip-rule="evenodd" d="M96.7323 90.2884H95.6688V95.7583H94.3682V90.2884H93.5801V89.0809H94.3682V86.0176H95.6688V89.0809H96.7323V90.2884Z" fill="#2A2A2A"/>
<path fill-rule="evenodd" clip-rule="evenodd" d="M104.853 90.2899H103.345V95.7598H102.048V90.2899H101.154V89.0824H102.048V86.3623C102.048 85.498 102.188 84.8878 102.472 84.5277C102.764 84.1633 103.256 83.9727 103.955 83.9727C104.239 83.9727 104.531 84.0574 104.849 84.21V85.5234C104.726 85.4599 104.612 85.3963 104.489 85.3285C104.345 85.2649 104.179 85.2354 104.002 85.2354C103.565 85.2354 103.341 85.6039 103.341 86.3581V89.0782H104.849V90.2899H104.853Z" fill="#2A2A2A"/>
<path fill-rule="evenodd" clip-rule="evenodd" d="M107.25 86.0223C107.25 86.2511 107.156 86.4545 106.97 86.6408C106.796 86.8188 106.588 86.912 106.356 86.912C106.114 86.912 105.906 86.823 105.728 86.6408C105.546 86.4545 105.453 86.2511 105.453 86.0223C105.453 85.785 105.546 85.5816 105.728 85.4037C105.911 85.2257 106.118 85.1367 106.356 85.1367C106.584 85.1367 106.796 85.2257 106.97 85.4037C107.161 85.5816 107.25 85.785 107.25 86.0223ZM106.999 95.7629H105.707V89.0898H106.999V95.7629Z" fill="#2A2A2A"/>
<path fill-rule="evenodd" clip-rule="evenodd" d="M111.232 90.2884H110.169V95.7583H108.864V90.2884H108.08V89.0809H108.864V86.0176H110.169V89.0809H111.232V90.2884Z" fill="#2A2A2A"/>
<path fill-rule="evenodd" clip-rule="evenodd" d="M117.787 95.7573H116.486V91.8002C116.486 91.1772 116.38 90.7325 116.164 90.4527C115.935 90.1562 115.575 90.0206 115.058 90.0206C114.448 90.0206 114.016 90.1986 113.741 90.563C113.478 90.9188 113.342 91.5248 113.342 92.3594V95.7617H112.059V89.0885H113.342V90.0122C113.842 89.258 114.542 88.8809 115.419 88.8809C116.995 88.8809 117.787 89.7918 117.787 91.6221V95.7573Z" fill="#2A2A2A"/>
<path fill-rule="evenodd" clip-rule="evenodd" d="M125.552 94.1673C125.268 94.7097 124.836 95.1418 124.26 95.4807C123.688 95.8239 123.082 95.9934 122.442 95.9934C121.4 95.9934 120.574 95.6671 119.93 95.0104C119.294 94.3495 118.98 93.4851 118.98 92.4217C118.98 91.4344 119.277 90.604 119.87 89.9304C120.506 89.2228 121.315 88.8711 122.302 88.8711C123.323 88.8711 124.124 89.2101 124.717 89.8965C125.281 90.549 125.552 91.3836 125.552 92.4132V92.6335H120.294C120.294 93.2944 120.489 93.8368 120.879 94.2436C121.268 94.6588 121.773 94.8664 122.395 94.8664C123.323 94.8664 124.031 94.4427 124.51 93.5953L125.552 94.1673ZM124.277 91.6717C124.196 91.1676 123.989 90.765 123.65 90.4515C123.302 90.1422 122.87 89.9854 122.349 89.9854C121.853 89.9854 121.417 90.1422 121.027 90.4473C120.658 90.7524 120.408 91.1676 120.298 91.6717H124.277Z" fill="#2A2A2A"/>
<path fill-rule="evenodd" clip-rule="evenodd" d="M130.945 93.7872C130.945 94.3931 130.712 94.9143 130.271 95.3465C129.822 95.7786 129.275 95.9946 128.631 95.9946C127.691 95.9946 126.92 95.5625 126.322 94.694L127.254 93.9186C127.636 94.5414 128.093 94.8549 128.627 94.8549C128.915 94.8549 129.157 94.7618 129.352 94.5837C129.542 94.4058 129.64 94.1685 129.64 93.8931C129.64 93.6347 129.551 93.4271 129.377 93.2831C129.212 93.1433 128.797 92.9271 128.14 92.639C127.648 92.4272 127.292 92.1942 127.064 91.9653C126.767 91.656 126.623 91.262 126.623 90.7833C126.623 90.2621 126.831 89.8046 127.254 89.4359C127.648 89.0631 128.11 88.8809 128.627 88.8809C129.39 88.8809 129.974 89.241 130.398 89.9697L129.563 90.6392C129.284 90.2282 128.975 90.0291 128.627 90.0291C128.415 90.0291 128.225 90.0926 128.068 90.2282C127.903 90.3723 127.822 90.5291 127.822 90.707C127.822 90.9018 127.894 91.0713 128.038 91.2027C128.22 91.3595 128.564 91.5374 129.076 91.7493C129.729 92.0204 130.195 92.3085 130.483 92.6136C130.788 92.9229 130.945 93.3212 130.945 93.7872Z" fill="#2A2A2A"/>
<path fill-rule="evenodd" clip-rule="evenodd" d="M136.415 93.7872C136.415 94.3931 136.182 94.9143 135.75 95.3465C135.297 95.7786 134.75 95.9946 134.106 95.9946C133.162 95.9946 132.395 95.5625 131.793 94.694L132.721 93.9186C133.111 94.5414 133.568 94.8549 134.102 94.8549C134.39 94.8549 134.636 94.7618 134.827 94.5837C135.013 94.4058 135.115 94.1685 135.115 93.8931C135.115 93.6347 135.03 93.4271 134.852 93.2831C134.687 93.1433 134.263 92.9271 133.615 92.639C133.115 92.4272 132.755 92.1942 132.534 91.9653C132.242 91.656 132.102 91.262 132.102 90.7833C132.102 90.2621 132.301 89.8046 132.712 89.4359C133.111 89.0631 133.577 88.8809 134.098 88.8809C134.856 88.8809 135.445 89.241 135.869 89.9697L135.034 90.6392C134.763 90.2282 134.445 90.0291 134.102 90.0291C133.882 90.0291 133.7 90.0926 133.539 90.2282C133.373 90.3723 133.301 90.5291 133.301 90.707C133.301 90.9018 133.365 91.0713 133.522 91.2027C133.691 91.3595 134.038 91.5374 134.551 91.7493C135.199 92.0204 135.674 92.3085 135.958 92.6136C136.263 92.9229 136.415 93.3212 136.415 93.7872Z" fill="#2A2A2A"/>
</svg>
